<svg width="86" height="87" viewBox="0 0 86 87" fill="none" xmlns="http://www.w3.org/2000/svg">
<path d="M83.9129 80.0385C84.6777 80.8033 85.1074 81.8406 85.1074 82.9222C85.1074 84.0038 84.6778 85.0412 83.913 85.806C83.1482 86.5708 82.1109 87.0005 81.0293 87.0005C79.9477 87.0005 78.9104 86.5709 78.1455 85.8061L38.7235 46.384C38.3448 46.0053 38.0444 45.5557 37.8394 45.0609C37.6344 44.5661 37.5289 44.0358 37.5289 43.5002C37.5289 42.9647 37.6344 42.4344 37.8394 41.9396C38.0444 41.4448 38.3448 40.9952 38.7235 40.6165L78.1455 1.19443C78.9104 0.429634 79.9477 -1.59329e-05 81.0293 4.43144e-10C82.1109 1.59338e-05 83.1482 0.429696 83.913 1.19452C84.6778 1.95934 85.1074 2.99665 85.1074 4.07825C85.1074 5.15985 84.6777 6.19715 83.9129 6.96195L47.3746 43.5002L83.9129 80.0385ZM9.84564 43.5002L46.3839 6.96195C46.7626 6.58326 47.063 6.13369 47.268 5.6389C47.473 5.14411 47.5784 4.6138 47.5785 4.07825C47.5785 3.54269 47.473 3.01238 47.268 2.51759C47.0631 2.0228 46.7627 1.57322 46.384 1.19452C46.0053 0.815816 45.5558 0.515412 45.061 0.310457C44.5662 0.105501 44.0359 7.88983e-06 43.5003 4.43144e-10C42.9648 -7.88895e-06 42.4345 0.10547 41.9397 0.310411C41.4449 0.515352 40.9953 0.815742 40.6166 1.19443L1.19454 40.6165C0.815822 40.9952 0.515409 41.4448 0.31045 41.9396C0.105491 42.4344 0 42.9647 0 43.5002C0 44.0358 0.105491 44.5661 0.31045 45.0609C0.515409 45.5557 0.815822 46.0053 1.19454 46.384L40.6166 85.8061C41.3814 86.5709 42.4187 87.0005 43.5003 87.0005C44.5819 87.0005 45.6192 86.5708 46.384 85.806C47.1488 85.0412 47.5785 84.0038 47.5785 82.9222C47.5784 81.8406 47.1488 80.8033 46.3839 80.0385L9.84564 43.5002Z" fill="#FFCC00"/>
</svg>
