<svg width="501" height="512" viewBox="0 0 501 512" fill="none" xmlns="http://www.w3.org/2000/svg">
<path d="M272.971 272.971L40.9708 504.971C36.4698 509.472 30.3652 512.001 23.9999 512C17.6346 512 11.5301 509.472 7.02927 504.971C2.52841 500.47 -9.32217e-05 494.365 4.79445e-07 488C9.41806e-05 481.635 2.52878 475.53 7.02977 471.029L222.059 256L7.02977 40.9713C4.8011 38.7427 3.03322 36.0969 1.82705 33.1851C0.620877 30.2733 4.64319e-05 27.1524 2.60792e-09 24.0006C-9.37656e-05 17.6354 2.52841 11.5308 7.02926 7.02976C11.5301 2.52878 17.6346 9.37708e-05 23.9999 2.60792e-09C30.3652 -9.37656e-05 36.4698 2.52841 40.9708 7.02926L272.971 239.029C275.2 241.258 276.967 243.904 278.174 246.816C279.38 249.727 280.001 252.848 280.001 256C280.001 259.152 279.38 262.273 278.174 265.185C276.967 268.097 275.2 270.743 272.971 272.971ZM493.83 239.029L261.83 7.02926C257.329 2.52841 251.224 -9.37656e-05 244.859 2.60792e-09C238.494 9.37708e-05 232.389 2.52878 227.888 7.02976C223.387 11.5308 220.859 17.6354 220.859 24.0006C220.859 30.3659 223.388 36.4704 227.889 40.9713L442.918 256L227.889 471.029C223.388 475.53 220.859 481.635 220.859 488C220.859 494.365 223.387 500.47 227.888 504.971C232.389 509.472 238.494 512 244.859 512C251.224 512.001 257.329 509.472 261.83 504.971L493.83 272.971C496.059 270.743 497.826 268.097 499.033 265.185C500.239 262.273 500.86 259.152 500.86 256C500.86 252.848 500.239 249.727 499.033 246.816C497.826 243.904 496.059 241.258 493.83 239.029Z" fill="#FFCC00"/>
</svg>
