<svg width="18" height="16" viewBox="0 0 18 16" fill="none" xmlns="http://www.w3.org/2000/svg">
<path fill-rule="evenodd" clip-rule="evenodd" d="M9.32974 0.580736C9.54068 0.369829 9.82677 0.251343 10.1251 0.251343C10.4235 0.251343 10.7096 0.369829 10.9205 0.580736L17.6706 7.33082C17.8815 7.54179 18 7.8279 18 8.12621C18 8.42456 17.8815 8.71065 17.6706 8.92159L10.9205 15.6717C10.7083 15.8767 10.4242 15.9901 10.1292 15.9875C9.8342 15.9849 9.55204 15.8665 9.34347 15.6579C9.13489 15.4494 9.01654 15.1672 9.01395 14.8722C9.01136 14.5773 9.12476 14.2931 9.32974 14.0809L14.1594 9.25122H1.12501C0.826638 9.25122 0.540491 9.13264 0.329505 8.9217C0.118532 8.71076 0 8.42456 0 8.12621C0 7.82783 0.118532 7.54168 0.329505 7.3307C0.540491 7.11972 0.826638 7.00119 1.12501 7.00119H14.1594L9.32974 2.17151C9.1188 1.96053 9.00034 1.67443 9.00034 1.37612C9.00034 1.07781 9.1188 0.791709 9.32974 0.580736V0.580736Z" fill="black"/>
</svg>
