<svg width="151" height="122" viewBox="0 0 151 122" fill="none" xmlns="http://www.w3.org/2000/svg">
<path d="M122.462 85.0615H46.0424C45.1896 85.0615 44.46 84.4489 44.3104 83.6093L34.7578 30.0315C34.5659 28.9543 35.3923 27.9615 36.4915 27.9624L148.423 28.1701C149.718 28.1727 150.568 29.5351 150.001 30.7004L124.044 84.0696C123.75 84.6751 123.136 85.0606 122.461 85.0606L122.462 85.0615ZM138.962 45.3505H41.0645L47.5166 81.5402H121.36L138.962 45.3505ZM40.4362 41.831H140.674L145.609 31.6861L38.5923 31.4881L40.4362 41.831Z" fill="#212121"/>
<path d="M36.4874 31.4849C35.6478 31.4849 34.905 30.8829 34.7554 30.0274L33.3842 22.1664C30.0697 22.1664 26.478 22.8546 26.478 20.4062C26.478 19.4346 27.2666 18.646 28.2382 18.646H34.8645C35.7199 18.646 36.4504 19.2612 36.5974 20.1034L38.223 29.4211C38.4095 30.4904 37.5717 31.4849 36.4874 31.4849Z" fill="#212121"/>
<path d="M66.7978 74.2946C65.8262 74.2946 65.0376 73.5051 65.0376 72.5344V54.2336C65.0376 51.9163 68.5571 51.9163 68.5571 54.2336V72.5344C68.5571 73.5042 67.7703 74.2937 66.7969 74.2937L66.7978 74.2946Z" fill="#212121"/>
<path d="M80.8139 74.2944C79.8423 74.2944 79.0537 73.5049 79.0537 72.5342V54.2334C79.0537 51.917 82.5741 51.917 82.5741 54.2334V72.5342C82.5741 73.5041 81.7855 74.2935 80.8139 74.2935V74.2944Z" fill="#212121"/>
<path d="M94.8315 74.2944C93.8599 74.2944 93.0713 73.5049 93.0713 72.5342V54.2334C93.0713 51.917 96.5908 51.917 96.5908 54.2334V72.5342C96.5908 73.5041 95.8022 74.2935 94.8306 74.2935L94.8315 74.2944Z" fill="#212121"/>
<path d="M108.849 74.2944C107.877 74.2944 107.089 73.5049 107.089 72.5342V54.2334C107.089 51.917 110.609 51.917 110.609 54.2334V72.5342C110.609 73.5041 109.82 74.2935 108.849 74.2935V74.2944Z" fill="#212121"/>
<path d="M70.0432 105.513H56.8056C55.834 105.513 55.0454 104.723 55.0454 103.752V83.3007C55.0454 80.9834 58.5658 80.9852 58.5658 83.3007V101.991L69.0055 101.991L79.7868 82.4506C80.9071 80.4211 83.9875 82.1241 82.868 84.15L71.5851 104.6C71.2744 105.162 70.6839 105.512 70.0441 105.512L70.0432 105.513Z" fill="#212121"/>
<path d="M115.998 94.5227C115.307 94.5227 114.65 94.1134 114.37 93.4349L110.454 83.9729C109.571 81.844 112.819 80.4895 113.705 82.6264L117.622 92.0883C118.104 93.2483 117.229 94.5236 115.998 94.5236L115.998 94.5227ZM124.972 91.1202C124.281 91.1202 123.625 90.711 123.345 90.0324L120.835 83.9729C119.952 81.8431 123.201 80.4895 124.087 82.6264L126.596 88.6859C127.077 89.8458 126.203 91.1202 124.972 91.1202Z" fill="#212121"/>
<path d="M125.577 121.401C116.256 121.401 108.671 113.817 108.671 104.495C108.671 95.1716 116.256 87.5869 125.577 87.5869C134.9 87.5869 142.484 95.1716 142.484 104.495C142.484 113.817 134.9 121.401 125.577 121.401ZM125.577 91.1064C118.196 91.1064 112.191 97.1114 112.191 104.493C112.191 111.873 118.195 117.878 125.577 117.878C132.959 117.878 138.963 111.874 138.963 104.493C138.963 97.1122 132.959 91.1064 125.577 91.1064Z" fill="#212121"/>
<path d="M125.577 113.263C120.742 113.263 116.808 109.329 116.808 104.493C116.808 99.659 120.742 95.7241 125.577 95.7241C130.412 95.7241 134.347 99.6582 134.347 104.493C134.347 109.329 130.411 113.263 125.577 113.263ZM125.577 99.2472C118.67 99.2472 118.67 109.743 125.577 109.743C132.486 109.743 132.486 99.2472 125.577 99.2472Z" fill="#212121"/>
<path d="M1.7602 28.0013C0.790329 28.0013 0 27.2145 0 26.2411V15.0788C0 14.0702 0.857217 13.2579 1.87021 13.323L28.3471 14.9837C29.2747 15.041 29.9973 15.811 29.9973 16.7404V24.5795C29.9973 25.5089 29.2747 26.2781 28.3471 26.3361L1.7602 28.0022V28.0013ZM3.5204 16.9543V24.3682L26.4769 22.9275V18.395L3.5204 16.9543Z" fill="#212121"/>
<path d="M82.5743 54.2343V72.5351C82.5743 74.8506 79.0539 74.8515 79.0539 72.5351V54.2343C79.0539 51.9179 82.5743 51.9179 82.5743 54.2343ZM138.962 45.3506H41.0645L47.5165 81.5403L56.8059 81.542L121.359 81.5403L138.962 45.3506ZM68.5579 72.536C68.5579 74.8524 65.0384 74.8515 65.0384 72.536V54.2352C65.0384 51.9188 68.5579 51.9188 68.5579 54.2352V72.536ZM94.8324 74.2953C93.8607 74.2953 93.0722 73.5058 93.0722 72.5351V54.2343C93.0722 51.9179 96.5917 51.9179 96.5917 54.2343V72.5351C96.5917 73.505 95.8031 74.2944 94.8315 74.2944L94.8324 74.2953ZM108.851 74.2953C107.879 74.2953 107.09 73.5058 107.09 72.5351V54.2343C107.09 51.9179 110.611 51.9179 110.611 54.2343V72.5351C110.611 73.505 109.821 74.2944 108.851 74.2944V74.2953Z" fill="#FA3C48"/>
<path d="M26.4779 22.9273V18.3948L3.52051 16.9541V24.3681L26.4779 22.9273Z" fill="#A1A1A1"/>
<path d="M78.3466 85.0615H58.5664V101.992L69.0061 101.991L78.3466 85.0615Z" fill="#A1A1A1"/>
<path d="M124.964 91.12C117.866 91.4413 112.191 97.3168 112.191 104.492C112.191 111.873 118.195 117.878 125.577 117.878C132.959 117.878 138.963 111.874 138.963 104.492C138.963 96.78 132.303 90.6853 125.118 91.113L124.963 91.1192L124.964 91.12ZM116.808 104.492C116.808 99.6579 120.742 95.723 125.577 95.723C130.412 95.723 134.347 99.657 134.347 104.492C134.347 109.328 130.411 113.262 125.577 113.262C120.742 113.262 116.808 109.328 116.808 104.492Z" fill="#737373"/>
<path d="M125.577 99.2466C118.67 99.2466 118.67 109.743 125.577 109.743C132.486 109.743 132.486 99.2466 125.577 99.2466Z" fill="#E9F1FF"/>
<path d="M40.4366 41.8302H140.675L145.609 31.6853L38.5928 31.4873L40.4366 41.8302Z" fill="#CB313B"/>
<path d="M65.2171 31.5375C63.9964 31.5375 63.1224 30.2896 63.5809 29.1305L73.1476 4.92158C73.6238 3.71848 75.1965 3.42277 76.0766 4.37416L85.9029 14.9908L100.245 0.521084C100.954 -0.195317 102.117 -0.168034 102.793 0.572129L120.495 19.9405C122.06 21.6505 119.46 24.025 117.898 22.3159L101.444 4.31343L87.1095 18.7717C86.4134 19.4749 85.2534 19.4679 84.5687 18.7277L75.3928 8.81602L66.854 30.4242C66.5821 31.116 65.9194 31.5375 65.2179 31.5375H65.2171Z" fill="#212121"/>
<path d="M135.621 31.6679C135.008 31.6679 134.413 31.3467 134.088 30.7764L126.554 17.4825L109.422 31.2296C107.623 32.6747 105.419 29.9288 107.22 28.4846L125.964 13.441C126.807 12.7634 128.061 13.0019 128.597 13.9462L137.152 29.0399C137.822 30.2228 136.951 31.6688 135.621 31.6688L135.621 31.6679Z" fill="#212121"/>
<path d="M50.8751 31.5111C49.5435 31.5111 48.6678 30.0571 49.3534 28.8699L56.6485 16.2457C57.0138 15.6121 57.7337 15.2715 58.4536 15.3885L69.7734 17.2235C72.0582 17.5932 71.5002 21.0722 69.2102 20.6982L59.0882 19.0568L52.4003 30.6292C52.0746 31.1951 51.4832 31.5102 50.8751 31.5102V31.5111Z" fill="#212121"/>
<path d="M67.8027 28.0211L107.705 28.095L116.632 20.9301L101.444 4.31299L87.1095 18.7713C86.4133 19.4736 85.2533 19.4683 84.5686 18.7273L75.3927 8.81558L67.8036 28.0211H67.8027Z" fill="#974D3A"/>
<path d="M126.553 17.4819L113.314 28.1056L132.595 28.1408L126.553 17.4819Z" fill="#974D3A"/>
<path d="M64.022 28.0144L67.0504 20.3478L59.0882 19.0576L53.9229 27.995L64.022 28.0144Z" fill="#974D3A"/>
</svg>
