<svg width="111" height="106" viewBox="0 0 111 106" fill="none" xmlns="http://www.w3.org/2000/svg">
<path d="M9.82385 105.62C9.1109 105.62 8.52285 105.042 8.52285 104.319L8.5209 95.6829H6.44515C2.89082 95.6829 0 92.7915 0 89.2371V45.826C0 42.2717 2.89147 39.3809 6.44515 39.3809H67.2201C70.7744 39.3809 73.6672 42.2723 73.6672 45.826V89.2371C73.6672 92.7915 70.775 95.6836 67.2201 95.6836L28.1634 95.6829C27.2215 95.9256 10.8718 105.619 9.8232 105.619L9.82385 105.62ZM6.4458 41.9829C4.32648 41.9829 2.602 43.7073 2.602 45.8267V89.2378C2.602 91.3578 4.32648 93.0816 6.4458 93.0816C12.1826 93.0816 11.1222 91.8743 11.1248 102.116C13.0139 101.073 27.0426 93.0816 27.8297 93.0816H67.2214C69.3413 93.0816 71.0658 91.3578 71.0658 89.2378V45.8267C71.0658 43.7073 69.3413 41.9829 67.2214 41.9829H6.44645H6.4458Z" fill="#212121"/>
<path d="M57.5411 55.7128H16.1244C14.4123 55.7128 14.4123 53.1108 16.1244 53.1108H57.5411C59.2539 53.1108 59.2539 55.7128 57.5411 55.7128Z" fill="#212121"/>
<path d="M57.5411 68.833H16.1244C14.4123 68.833 14.4123 66.231 16.1244 66.231H57.5411C59.2532 66.231 59.2532 68.833 57.5411 68.833Z" fill="#212121"/>
<path d="M51.6255 81.9524H22.0414C20.3293 81.9524 20.3293 79.3511 22.0414 79.3511H51.6255C53.3376 79.3511 53.3383 81.9524 51.6255 81.9524Z" fill="#212121"/>
<path d="M101.176 66.2432C100.129 66.2432 83.7768 56.5488 82.8361 56.3068H72.367C70.6542 56.3068 70.6555 53.7048 72.367 53.7048C73.8521 53.7048 83.1477 53.509 83.7995 53.8674L99.876 62.7389C99.8786 52.4981 98.8196 53.7048 104.554 53.7048C106.674 53.7048 108.398 51.9803 108.398 49.861V6.44857C108.398 4.32989 106.674 2.60477 104.554 2.60477H43.7795C41.6595 2.60477 39.935 4.32924 39.935 6.44857V40.6811C39.935 42.3939 37.333 42.3939 37.333 40.6811V6.44857C37.333 2.89424 40.2245 0.00341797 43.7795 0.00341797H104.554C108.109 0.00341797 111 2.89489 111 6.44857V49.8597C111 53.414 108.109 56.3061 104.554 56.3061H102.478L102.476 64.9422C102.475 65.6642 101.887 66.2432 101.175 66.2432H101.176Z" fill="#212121"/>
<path d="M94.8746 16.3357H53.4579C51.7451 16.3357 51.7451 13.7344 53.4579 13.7344H94.8752C96.588 13.7344 96.588 16.3357 94.8739 16.3357H94.8746Z" fill="#212121"/>
<path d="M94.8746 29.4549H53.4579C51.7451 29.4549 51.7451 26.8535 53.4579 26.8535H94.8752C96.588 26.8535 96.588 29.4549 94.8739 29.4549H94.8746Z" fill="#212121"/>
<path d="M88.9585 42.5747H69.612C67.8992 42.5747 67.8999 39.9727 69.612 39.9727H88.9598C90.6725 39.9727 90.6726 42.5747 88.9585 42.5747Z" fill="#212121"/>
<path d="M57.5413 68.8331H16.1246C14.4125 68.8331 14.4125 66.2311 16.1246 66.2311H57.5413C59.2534 66.2311 59.2534 68.8331 57.5413 68.8331ZM71.0659 55.0054L71.0652 45.8262C71.0652 43.6776 69.3115 41.9824 67.2208 41.9824H6.44585C4.32653 41.9824 2.60205 43.7069 2.60205 45.8262V89.2373C2.60205 91.3573 4.32653 93.0811 6.44585 93.0811C8.64064 93.0811 11.1229 92.6089 11.1236 94.3815L11.1249 102.115L27.2007 93.2431C27.3933 93.1371 27.6105 93.0805 27.8297 93.0805H67.2214C69.3414 93.0805 71.0659 91.3567 71.0659 89.2367L71.0665 55.0048L71.0659 55.0054ZM57.5413 55.7132H16.1246C14.4125 55.7132 14.4125 53.1112 16.1246 53.1112H57.5413C59.2534 53.1112 59.2534 55.7132 57.5413 55.7132ZM22.0409 79.3504H51.625C53.3371 79.3504 53.3378 81.9517 51.625 81.9517H22.0409C20.3288 81.9517 20.3288 79.3504 22.0409 79.3504Z" fill="#8CD86B"/>
<path d="M73.6679 53.7047C75.0372 53.7047 83.1535 53.5121 83.8001 53.8673L99.8765 62.7388L99.8785 55.005C99.8798 53.2324 102.358 53.704 104.555 53.704C106.675 53.704 108.399 51.9796 108.399 49.8602V6.44781C108.399 4.32913 106.675 2.604 104.555 2.604H43.78C41.66 2.604 39.9355 4.32848 39.9355 6.44781V39.38H67.2214C68.1842 39.38 69.0988 39.5921 69.9203 39.9726H88.9598C90.6726 39.9726 90.6726 42.5746 88.9585 42.5746H72.7858C73.3465 43.5296 73.6679 44.6406 73.6679 45.8258V53.704V53.7047ZM94.8755 29.4547H53.4588C51.746 29.4547 51.7467 26.8533 53.4588 26.8533H94.8761C96.5889 26.8533 96.5889 29.4547 94.8748 29.4547H94.8755ZM94.8755 16.3361H53.4588C51.7467 16.3361 51.746 13.7347 53.4588 13.7347H94.8761C96.5889 13.7347 96.5889 16.3361 94.8748 16.3361H94.8755Z" fill="#8BC9D4"/>
</svg>
