<svg width="117" height="117" viewBox="0 0 117 117" fill="none" xmlns="http://www.w3.org/2000/svg">
<path d="M104.615 33.1694C106.575 33.1694 108.163 31.5807 108.163 29.6211C108.163 27.6614 106.575 26.0728 104.615 26.0728C102.656 26.0728 101.067 27.6614 101.067 29.6211C101.067 31.5807 102.656 33.1694 104.615 33.1694Z" fill="#B3DAFE"/>
<path d="M86.8735 22.5243C88.8332 22.5243 90.4218 20.9357 90.4218 18.976C90.4218 17.0164 88.8332 15.4277 86.8735 15.4277C84.9138 15.4277 83.3252 17.0164 83.3252 18.976C83.3252 20.9357 84.9138 22.5243 86.8735 22.5243Z" fill="#B3DAFE"/>
<path d="M58.9656 41.1387C58.9656 34.6761 64.0664 30.126 70.3704 30.126C74.173 30.126 77.5392 31.8616 79.6137 34.5281C85.2056 32.0524 92.0164 35.3407 93.0612 41.0409C100.143 39.5943 104.617 45.3349 104.617 51.416H51.3909C51.3459 45.7185 53.3972 41.1387 58.9656 41.1387Z" fill="#B3DAFE"/>
<path d="M70.4465 39.9626C70.8196 36.1968 72.9765 33.1929 76.0503 31.537C74.3779 30.6396 72.4387 30.126 70.3704 30.126C64.0661 30.126 58.9656 34.6761 58.9656 41.1387C53.3972 41.1387 51.3459 45.7185 51.3909 51.416H62.8141C62.7723 46.1236 64.5395 41.7958 69.2541 41.207C69.8957 41.1271 70.3828 40.6062 70.4465 39.9626Z" fill="#8AC9FE"/>
<path d="M108.292 65.6089L104.615 115.286H19.4553L15.9067 65.6089H108.292Z" fill="#FE646F"/>
<path d="M108.292 65.6089H15.9067L19.455 115.286H30.8783L27.9186 73.8494C27.7769 71.8656 29.3481 70.1782 31.3369 70.1782H107.954L108.292 65.6089Z" fill="#E53950"/>
<path d="M111.711 65.6089H12.3581V51.4155H111.711V65.6089Z" fill="#FE646F"/>
<path d="M12.3579 51.416H23.7812V65.6094H12.3579V51.416Z" fill="#E53950"/>
<path d="M8.79631 115.286H65.5981C69.5097 115.286 72.6806 112.115 72.6806 108.203V100.97C72.6806 97.0581 69.5097 93.8872 65.5981 93.8872H8.79631C4.88474 93.8872 1.71387 97.0581 1.71387 100.97V108.203C1.71387 112.115 4.88474 115.286 8.79631 115.286Z" fill="#B3DAFE"/>
<path d="M13.1372 108.203V100.97C13.1372 97.0581 16.308 93.8872 20.2196 93.8872H8.79631C4.88474 93.8872 1.71387 97.0581 1.71387 100.97V108.203C1.71387 112.115 4.88474 115.286 8.79631 115.286H20.2196C16.308 115.286 13.1372 112.115 13.1372 108.203Z" fill="#8AC9FE"/>
<path d="M72.6802 93.8872H1.71346V86.8991H72.6802V93.8872Z" fill="#9CF8D2"/>
<path d="M1.71387 86.8989H13.1372V93.887H1.71387V86.8989Z" fill="#91DEB6"/>
<path d="M51.3901 86.8989H23.0035V72.7055H51.3901V86.8989Z" fill="#9CF8D2"/>
<path d="M23.0039 72.7061H29.8579V86.8995H23.0039V72.7061Z" fill="#91DEB6"/>
<path d="M37.1968 79.8031C40.2153 79.8031 42.6622 77.3562 42.6622 74.3377V65.6099H31.7314V74.3377C31.7314 77.3562 34.1783 79.8031 37.1968 79.8031Z" fill="#9CF8D2"/>
<path d="M37.4431 74.3377V65.6099H31.7314V74.3377C31.7314 77.3562 34.1783 79.8031 37.1968 79.8031C38.2436 79.8031 39.2215 79.5088 40.0526 78.9984C38.4872 78.037 37.4431 76.3094 37.4431 74.3377Z" fill="#91DEB6"/>
<path d="M40.7451 65.6099H33.6485V1.73998H40.7451V65.6099Z" fill="#E9F1FF"/>
<path d="M33.6479 1.73975H37.0749V65.6096H33.6479V1.73975Z" fill="#D7E4F7"/>
<path d="M111.709 86.9815C113.022 86.9815 114.286 86.2559 114.911 85.0014C115.793 83.2344 115.075 81.0873 113.308 80.2056L63.6315 55.4217C61.8643 54.5403 59.7172 55.2581 58.8358 57.0248C57.9544 58.7918 58.672 60.9389 60.4389 61.8206L110.116 86.6045C110.628 86.8604 111.173 86.9815 111.709 86.9815Z" fill="#E9F1FF"/>
<path d="M8.81066 102.806H65.5842C66.5307 102.806 67.2977 102.039 67.2977 101.092C67.2977 100.146 66.5307 99.3789 65.5842 99.3789H8.81066C7.86436 99.3789 7.09717 100.146 7.09717 101.092C7.09717 102.039 7.86436 102.806 8.81066 102.806Z" fill="black"/>
<path d="M67.2977 108.19C67.2977 107.243 66.5307 106.476 65.5842 106.476H8.81066C7.86436 106.476 7.09717 107.243 7.09717 108.19C7.09717 109.136 7.86436 109.903 8.81066 109.903H65.5842C66.5305 109.903 67.2977 109.136 67.2977 108.19Z" fill="black"/>
<path d="M114.073 78.6732L109.223 76.2535L109.884 67.323H111.711C112.657 67.323 113.424 66.5558 113.424 65.6095V51.4172C113.424 50.4709 112.657 49.7037 111.711 49.7037H106.226C105.486 43.6398 100.64 38.6368 94.3129 39.1367C92.2812 33.553 85.6774 30.7833 80.1289 32.5087C72.8008 24.8599 58.6309 28.6369 57.3442 39.5434C52.3081 40.3094 50.0479 45.0236 49.7279 49.7039H42.4581V22.7262C42.4581 21.7799 41.6909 21.0127 40.7446 21.0127C39.7983 21.0127 39.0311 21.7799 39.0311 22.7262V63.8962H35.3619V3.45287H39.0311V15.26C39.0311 16.2063 39.7983 16.9735 40.7446 16.9735C41.6909 16.9735 42.4581 16.2063 42.4581 15.26V1.73937C42.4581 0.793067 41.6909 0.0258789 40.7446 0.0258789H33.6484C32.7021 0.0258789 31.9349 0.793067 31.9349 1.73937V49.7035H12.3577C11.4114 49.7035 10.6442 50.4707 10.6442 51.417V65.6093C10.6442 66.5556 11.4114 67.3228 12.3577 67.3228H14.3104L15.5871 85.1865H1.71349C0.767188 85.1865 0 85.9537 0 86.9V93.8888C0 94.9511 0.923915 95.5145 1.83252 95.6022C0.684026 97.0886 0 98.9511 0 100.97V108.204C0 113.054 3.94583 117 8.79593 117L104.614 117C105.512 117 106.257 116.308 106.323 115.413L108.378 87.6535C111.123 89.1113 114.848 88.9655 116.444 85.767C117.746 83.1573 116.682 79.9752 114.073 78.6732ZM105.909 74.6001L91.3226 67.323H106.448L105.909 74.6001ZM83.1387 53.1305C84.0852 53.1305 84.8522 52.3633 84.8522 51.417C84.8522 50.4707 84.0852 49.7035 83.1387 49.7035H53.1622C53.4301 46.3469 54.8823 42.8518 58.9647 42.8518C59.9113 42.8518 60.6782 42.0846 60.6782 41.1383C60.6782 32.214 72.8408 28.6149 78.2612 35.5809C78.7441 36.2018 79.5881 36.4136 80.3071 36.0954C84.5792 34.2039 90.4845 36.4867 91.3756 41.3508C91.668 42.3759 92.3443 42.8324 93.4043 42.7206C98.1946 41.741 102.024 45.0832 102.767 49.703H90.6072C89.6607 49.703 88.8937 50.4702 88.8937 51.4165C88.8937 52.3628 89.6607 53.13 90.6072 53.13H109.997V63.8953H84.4537L64.3963 53.8885C61.7861 52.5865 58.6042 53.6507 57.3026 56.26C56.0008 58.8695 57.0646 62.0518 59.6739 63.3538L60.7593 63.8953H42.4581V53.13H83.1387V53.1305ZM49.6776 85.1865H24.7177V74.4189H30.0183C30.062 78.3401 33.2653 81.5164 37.1967 81.5164C41.1282 81.5164 44.3313 78.3401 44.3751 74.4189H49.6776V85.1865ZM40.9486 74.3378C40.9486 76.4066 39.2655 78.0897 37.1967 78.0897C35.128 78.0897 33.4449 76.4066 33.4449 74.3378V67.3232H40.9486V74.3378ZM14.0712 53.1305H31.9349V63.8958H14.0712V53.1305ZM17.7461 67.3228H30.0179V70.9919H23.0042C22.0579 70.9919 21.2907 71.7591 21.2907 72.7054V85.1865H19.0227L17.7461 67.3228ZM3.42699 108.204V100.97C3.42699 98.0409 5.78521 95.6518 8.70317 95.6022H65.6903C68.608 95.6521 70.9665 98.0409 70.9665 100.97V108.204C70.9665 111.164 68.558 113.573 65.5975 113.573H8.79593C5.83547 113.573 3.42699 111.164 3.42699 108.204ZM103.023 113.573H72.5598C73.7088 112.087 74.3935 110.224 74.3935 108.204V100.97C74.3935 98.9509 73.7095 97.0884 72.561 95.6022C73.4696 95.5143 74.393 94.9511 74.393 93.8888V86.9C74.393 85.9537 73.6261 85.1865 72.6795 85.1865H63.6825C62.736 85.1865 61.969 85.9537 61.969 86.9C61.969 87.8463 62.736 88.6135 63.6825 88.6135H70.966V92.1753H3.42699V88.6135H17.4164H17.4258H17.4381H56.2163C57.1626 88.6135 57.9298 87.8463 57.9298 86.9C57.9298 85.9537 57.1626 85.1865 56.2163 85.1865H53.1046V72.7054C53.1046 71.7591 52.3374 70.9919 51.3911 70.9919H44.3756V67.3228H67.6281L105.064 86.0001L103.023 113.573ZM113.378 84.237C112.66 85.2249 111.828 85.5031 110.88 85.0718L61.2037 60.2878C60.285 59.8295 59.9106 58.7091 60.3689 57.7902C61.0867 56.8042 61.919 56.5259 62.8662 56.9554L112.543 81.7394C113.462 82.1979 113.836 83.3183 113.378 84.237Z" fill="black"/>
<path d="M104.615 34.8825C107.516 34.8825 109.877 32.522 109.877 29.6207C109.877 26.7194 107.516 24.3589 104.615 24.3589C101.714 24.3589 99.353 26.7194 99.353 29.6207C99.353 32.5222 101.714 34.8825 104.615 34.8825ZM104.615 27.7859C105.627 27.7859 106.45 28.609 106.45 29.6207C106.45 30.6323 105.626 31.4555 104.615 31.4555C103.603 31.4555 102.78 30.6323 102.78 29.6207C102.78 28.609 103.603 27.7859 104.615 27.7859Z" fill="black"/>
<path d="M86.8731 24.2384C89.7744 24.2384 92.1349 21.8779 92.1349 18.9766C92.1349 16.0754 89.7744 13.7148 86.8731 13.7148C83.9718 13.7148 81.6113 16.0754 81.6113 18.9766C81.6113 21.8779 83.9718 24.2384 86.8731 24.2384ZM86.8731 17.1418C87.885 17.1418 88.7079 17.965 88.7079 18.9766C88.7079 19.9883 87.8848 20.8114 86.8731 20.8114C85.8615 20.8114 85.0383 19.9883 85.0383 18.9766C85.0383 17.965 85.8612 17.1418 86.8731 17.1418Z" fill="black"/>
</svg>
