<svg width="109" height="127" viewBox="0 0 109 127" fill="none" xmlns="http://www.w3.org/2000/svg">
<path d="M100.258 126.39H25.7885C21.1704 126.39 17.4121 122.633 17.4121 118.014V22.5117C17.4121 17.8935 21.1689 14.1353 25.7885 14.1353H89.7424C90.135 14.1353 90.512 14.2915 90.7905 14.5693L108.202 31.9799C108.48 32.2576 108.636 32.6339 108.636 33.0265V118.014C108.634 122.633 104.876 126.39 100.257 126.39H100.258ZM25.7885 17.098C22.8036 17.098 20.3741 19.5267 20.3741 22.5124V118.014C20.3741 120.999 22.8028 123.428 25.7885 123.428H100.259C103.244 123.428 105.673 121.001 105.673 118.014V33.6405L89.1284 17.098H25.7878H25.7885Z" fill="#212121"/>
<path d="M107.154 34.5093H89.7431C88.9254 34.5093 88.2617 33.8457 88.2617 33.028V15.6174C88.2617 14.3034 89.8601 13.6383 90.7912 14.57L108.202 31.9806C109.132 32.9117 108.468 34.5093 107.154 34.5093ZM91.2245 31.5466H103.578L91.2245 19.1927V31.5466Z" fill="#212121"/>
<path d="M18.8934 112.255H8.37717C3.75899 112.255 0 108.497 0 103.877V8.37643C0 3.75825 3.75751 0 8.37717 0H72.3318C76.95 0 80.709 3.75751 80.709 8.37643V15.6174C80.709 17.5669 77.747 17.5669 77.747 15.6174V8.37643C77.7455 5.39072 75.3168 2.96201 72.3318 2.96201H8.37717C5.3922 2.96201 2.96275 5.39072 2.96275 8.37643V103.878C2.96275 106.863 5.39146 109.293 8.37717 109.293H18.8934C20.8429 109.293 20.8437 112.255 18.8934 112.255Z" fill="#212121"/>
<path d="M94.4983 104.903H71.2578C69.3075 104.903 69.309 101.941 71.2578 101.941H94.4983C96.4478 101.941 96.4485 104.903 94.4983 104.903Z" fill="#212121"/>
<path d="M94.4983 66.5047H31.5495C29.6 66.5047 29.6 63.542 31.5495 63.542H94.4983C96.4478 63.542 96.4485 66.5047 94.4983 66.5047Z" fill="#212121"/>
<path d="M94.4984 50.1053H31.5496C29.5994 50.1053 29.5994 47.1433 31.5496 47.1433H94.4984C96.4479 47.1433 96.4486 50.1053 94.4984 50.1053Z" fill="#212121"/>
<path d="M94.4983 82.6583H31.5495C29.6 82.6583 29.6 79.6963 31.5495 79.6963H94.4983C96.4478 79.6963 96.4485 82.6583 94.4983 82.6583Z" fill="#212121"/>
<path d="M50.9104 104.903H27.6706C25.7211 104.903 25.7211 101.941 27.6706 101.941H50.9104C52.8599 101.941 52.8599 104.903 50.9104 104.903Z" fill="#212121"/>
<path d="M87.3855 98.367C86.0974 98.367 84.9397 95.8857 83.6754 93.9888C82.2481 94.968 78.9283 98.05 78.2002 95.3524L77.5706 93.0155C76.073 95.2583 74.9012 98.0315 73.1976 96.8953C72.5177 96.4412 72.3332 95.522 72.7895 94.8413L76.9196 88.6551C77.6254 87.5959 79.252 87.8707 79.5816 89.0929L80.5178 92.563C84.982 89.501 84.1627 89.3765 87.4758 94.3466L91.8777 88.6588C93.0643 87.1204 95.4101 88.9343 94.2213 90.4713L88.558 97.7893C88.2758 98.1537 87.8425 98.3655 87.3855 98.3655V98.367Z" fill="#212121"/>
<path d="M33.8841 98.3669C33.4264 98.3669 32.9938 98.1551 32.7124 97.7907L29.3163 93.3999C28.1283 91.8637 30.4703 90.0505 31.6606 91.5874L33.796 94.3479C37.1098 89.3772 36.2899 89.5031 40.7533 92.5636C41.3273 90.4364 41.4873 88.2988 42.8257 88.0277C43.3783 87.9158 43.9419 88.1262 44.2871 88.5676L48.5631 94.0443C49.7571 95.5745 47.4239 97.4003 46.2284 95.8671L43.779 92.7281C42.4354 97.704 42.4694 97.3329 37.5965 93.9894C36.3299 95.8893 35.1752 98.3669 33.8856 98.3669H33.8841Z" fill="#212121"/>
<path d="M48.5631 94.0452C49.7571 95.5762 47.4239 97.4012 46.2284 95.868L43.779 92.729C43.3472 94.3281 43.2109 95.9672 42.1517 96.3583C41.7021 96.5242 41.197 96.462 40.8022 96.1894L37.5965 93.9896L35.1189 97.7071C34.5582 98.5485 33.3346 98.5945 32.7139 97.7908L29.3178 93.4C28.1298 91.8638 30.4718 90.0506 31.6621 91.5876L33.7975 94.3481C37.1113 89.3774 36.2914 89.5033 40.7548 92.5638C41.3288 90.4358 41.4888 88.2996 42.8272 88.0278C43.3798 87.916 43.9434 88.1263 44.2886 88.5678L48.5646 94.0444L48.5631 94.0452ZM27.6713 101.941H50.9111C52.8606 101.941 52.8606 104.904 50.9111 104.904H27.6713C25.7218 104.904 25.7218 101.941 27.6713 101.941ZM20.374 22.5133V118.015C20.374 121 22.8027 123.429 25.7884 123.429H100.259C103.244 123.429 105.673 121.002 105.673 118.015V34.5095H89.7423C88.9246 34.5095 88.261 33.8458 88.261 33.0281V17.0989C67.4365 17.0989 46.6121 17.0989 25.7884 17.0989C22.8035 17.0989 20.374 19.5276 20.374 22.5133ZM73.1976 96.8961C72.5176 96.442 72.3332 95.5228 72.7895 94.8421L76.9196 88.6559C77.6262 87.5967 79.252 87.8715 79.5816 89.0937L80.5178 92.5638C84.9827 89.5018 84.1635 89.3781 87.4758 94.3474L91.8777 88.6596C93.0643 87.1212 95.4101 88.9352 94.2213 90.4721L88.558 97.7901C87.935 98.5937 86.7122 98.5463 86.153 97.7064L83.6754 93.9889L80.4697 96.1887C79.629 96.7657 78.4661 96.3376 78.2002 95.3525L77.5706 93.0156L75.2523 96.4872C74.7982 97.1664 73.8783 97.3494 73.1983 96.8953L73.1976 96.8961ZM94.4975 82.6586H31.5488C29.5993 82.6586 29.5993 79.6966 31.5488 79.6966H94.4975C96.447 79.6966 96.447 82.6586 94.4975 82.6586ZM94.4975 66.5049H31.5488C29.5993 66.5049 29.5993 63.5422 31.5488 63.5422H94.4975C96.447 63.5422 96.4478 66.5049 94.4975 66.5049ZM94.4975 50.1054H31.5488C29.5993 50.1054 29.5993 47.1434 31.5488 47.1434H94.4975C96.447 47.1434 96.4478 50.1054 94.4975 50.1054ZM71.257 101.941H94.4975C96.447 101.941 96.4478 104.904 94.4975 104.904H71.257C69.3075 104.904 69.3083 101.941 71.257 101.941Z" fill="#E6E6E6"/>
<path d="M17.412 109.292V22.5116C17.412 17.8934 21.1687 14.1352 25.7884 14.1352H77.7461V8.37634C77.7446 5.39063 75.3159 2.96191 72.331 2.96191H8.37634C5.39137 2.96191 2.96191 5.39063 2.96191 8.37634V103.878C2.96191 106.863 5.39063 109.293 8.37634 109.293H17.4112L17.412 109.292Z" fill="#BABABA"/>
<path d="M91.2236 31.5465H103.577L91.2236 19.1926V31.5465Z" fill="#BABABA"/>
</svg>
