<svg width="177" height="101" viewBox="0 0 177 101" fill="none" xmlns="http://www.w3.org/2000/svg">
<path d="M173.266 89.8664H159.583C156.853 89.8664 156.855 85.7194 159.583 85.7194H172.802V78.7962H159.583C156.853 78.7962 156.855 74.6493 159.583 74.6493C178.819 74.6493 176.951 72.6806 176.95 86.1839C176.95 88.2117 175.296 89.8653 173.266 89.8653V89.8664ZM128.662 89.8664H90.8905C88.1608 89.8664 88.1629 85.7194 90.8905 85.7194H128.662C131.39 85.7194 131.391 89.8664 128.662 89.8664ZM59.9692 89.8664H46.8567C44.128 89.8664 44.128 85.7194 46.8567 85.7194H59.9692C62.6978 85.7194 62.6989 89.8664 59.9692 89.8664ZM15.9353 89.8664C-1.62267 89.8664 0.0423153 91.6827 0.0423153 78.3317C0.0423153 76.3018 1.69382 74.6472 3.72476 74.6472L15.9332 74.6483C18.6619 74.6483 18.6619 78.7941 15.9332 78.7941H4.18818V85.7174H15.9332C18.664 85.7174 18.6598 89.8664 15.9353 89.8664ZM128.661 78.7962H90.8895C88.1598 78.7962 88.1619 74.6493 90.8895 74.6493H128.661C131.389 74.6493 131.39 78.7962 128.661 78.7962ZM59.9681 78.7962H46.8556C44.127 78.7962 44.127 74.6493 46.8556 74.6493H59.9681C62.6968 74.6493 62.6978 78.7962 59.9681 78.7962Z" fill="#212121"/>
<path d="M168.589 78.7971H159.583C158.708 78.7971 157.927 78.2456 157.633 77.4224C153.114 64.8044 135.133 64.8044 130.613 77.4224C130.317 78.2456 129.538 78.7971 128.661 78.7971H114.24C113.095 78.7971 112.166 77.8672 112.166 76.7236V2.36972C112.166 1.22517 113.096 0.296265 114.24 0.296265H149.88C150.585 0.296265 151.243 0.656007 151.625 1.25109L170.335 30.437C170.549 30.7708 170.664 31.1596 170.664 31.5556V76.7236C170.664 77.8661 169.734 78.7971 168.59 78.7971H168.589ZM160.978 74.6492H166.515V32.1621L148.745 4.44317H116.312V74.6502L127.264 74.6492C133.796 60.192 154.448 60.19 160.978 74.6492Z" fill="#212121"/>
<path d="M157.114 32.6114H125.428C124.284 32.6114 123.355 31.6825 123.355 30.5379V11.0153C123.355 9.8708 124.285 8.94189 125.428 8.94189H144.6C145.305 8.94189 145.964 9.30164 146.345 9.89568L158.857 29.4183C159.74 30.795 158.749 32.6093 157.114 32.6093V32.6114ZM127.502 28.4655H153.322L143.467 13.0898H127.502V28.4655Z" fill="#212121"/>
<path d="M5.55039 78.7838C4.16636 78.7838 3.15555 77.4434 3.56817 76.1018L11.8319 49.2227C12.513 47.0093 16.379 47.7588 20.4512 47.7588C23.1809 47.7588 23.1809 51.9047 20.4512 51.9047H15.3454L7.53157 77.3179C7.25787 78.2085 6.43679 78.7828 5.55039 78.7828V78.7838Z" fill="#212121"/>
<path d="M144.122 100.75C133.926 100.75 125.629 92.4529 125.629 82.2567C125.629 72.0605 133.926 63.7646 144.122 63.7646C154.319 63.7646 162.614 72.0616 162.614 82.2567C162.614 92.4529 154.318 100.75 144.122 100.75ZM144.122 67.9126C136.213 67.9126 129.777 74.3475 129.777 82.2577C129.777 90.1669 136.212 96.6029 144.122 96.6029C152.032 96.6029 158.468 90.168 158.468 82.2577C158.468 74.3475 152.033 67.9126 144.122 67.9126Z" fill="#212121"/>
<path d="M75.4298 100.75C65.2336 100.75 56.9377 92.4529 56.9377 82.2567C56.9377 72.0605 65.2326 63.7646 75.4298 63.7646C85.626 63.7646 93.9208 72.0616 93.9208 82.2567C93.9208 92.4529 85.625 100.75 75.4298 100.75ZM75.4298 67.9126C67.5186 67.9126 61.0836 74.3475 61.0836 82.2577C61.0836 90.1669 67.5186 96.6029 75.4298 96.6029C83.34 96.6029 89.7729 90.168 89.7729 82.2577C89.7729 74.3475 83.339 67.9126 75.4298 67.9126Z" fill="#212121"/>
<path d="M31.394 100.75C21.1978 100.75 12.903 92.4529 12.903 82.2567C12.903 72.0605 21.1978 63.7646 31.394 63.7646C41.5912 63.7646 49.885 72.0616 49.885 82.2567C49.885 92.4529 41.5912 100.75 31.394 100.75ZM31.394 67.9126C23.4848 67.9126 17.0488 74.3475 17.0488 82.2577C17.0488 90.1669 23.4838 96.6029 31.394 96.6029C39.3042 96.6029 45.7392 90.168 45.7392 82.2577C45.7392 74.3475 39.3042 67.9126 31.394 67.9126Z" fill="#212121"/>
<path d="M144.122 91.9024C138.806 91.9024 134.479 87.5751 134.479 82.2588C134.479 76.9425 138.806 72.6141 144.122 72.6141C149.438 72.6141 153.766 76.9414 153.766 82.2588C153.766 87.5751 149.438 91.9024 144.122 91.9024ZM144.122 76.76C136.888 76.76 136.888 87.7534 144.122 87.7534C151.356 87.7534 151.357 76.76 144.122 76.76Z" fill="#212121"/>
<path d="M75.4299 91.9024C70.1115 91.9024 65.7863 87.5751 65.7863 82.2588C65.7863 76.9425 70.1125 72.6141 75.4299 72.6141C80.7483 72.6141 85.0745 76.9414 85.0745 82.2588C85.0745 87.5751 80.7483 91.9024 75.4299 91.9024ZM75.4299 76.76C68.1946 76.76 68.1946 87.7534 75.4299 87.7534C82.6662 87.7534 82.6662 76.76 75.4299 76.76Z" fill="#212121"/>
<path d="M31.3959 91.9024C26.0775 91.9024 21.7523 87.5751 21.7523 82.2588C21.7523 76.9425 26.0786 72.6141 31.3959 72.6141C36.7143 72.6141 41.0396 76.9414 41.0396 82.2588C41.0396 87.5751 36.7143 91.9024 31.3959 91.9024ZM31.3959 76.76C24.1596 76.76 24.1596 87.7534 31.3959 87.7534C38.6312 87.7534 38.6323 76.76 31.3959 76.76Z" fill="#212121"/>
<path d="M168.589 61.1004H157.482C156.337 61.1004 155.408 60.1705 155.408 59.027V45.1598C155.408 44.0152 156.338 43.0863 157.482 43.0863H168.589C171.319 43.0863 171.317 47.2322 168.589 47.2322H159.556V56.9515H168.589C171.319 56.9515 171.317 61.0994 168.589 61.0994V61.1004Z" fill="#212121"/>
<path d="M140.887 43.8711H127.44C124.711 43.8711 124.713 39.7252 127.44 39.7252H140.887C143.616 39.7252 143.616 43.8711 140.887 43.8711Z" fill="#212121"/>
<path d="M82.9762 51.9055C60.4326 51.9055 37.8901 51.9055 15.3465 51.9055L8.35376 74.6481H14.543C21.0993 60.1837 41.6948 60.1858 48.249 74.6502H58.5758C65.13 60.1837 85.7287 60.1837 92.2839 74.6502H112.166V51.9044H82.9762V51.9055Z" fill="#737373"/>
<path d="M89.7729 82.2578C89.7729 74.3475 83.339 67.9126 75.4298 67.9126C67.5186 67.9126 61.0836 74.3475 61.0836 82.2578C61.0836 90.1669 67.5186 96.6029 75.4298 96.6029C83.34 96.6029 89.7729 90.168 89.7729 82.2578ZM75.4298 72.6131C80.7482 72.6131 85.0745 76.9404 85.0745 82.2578C85.0745 87.5741 80.7482 91.9014 75.4298 91.9014C70.1114 91.9014 65.7862 87.5741 65.7862 82.2578C65.7862 76.9414 70.1125 72.6131 75.4298 72.6131Z" fill="#737373"/>
<path d="M80.9276 82.2565C80.9276 75.0223 69.9321 75.0212 69.9321 82.2565C69.9321 89.4918 80.9276 89.4898 80.9276 82.2565Z" fill="#E9F1FF"/>
<path d="M31.396 87.7536C38.6313 87.7536 38.6323 76.7601 31.396 76.7601C24.1597 76.7601 24.1597 87.7536 31.396 87.7536Z" fill="#E9F1FF"/>
<path d="M41.0398 82.2578C41.0398 87.5741 36.7146 91.9014 31.3962 91.9014C26.0778 91.9014 21.7526 87.5741 21.7526 82.2578C21.7526 76.9414 26.0788 72.6131 31.3962 72.6131C36.7146 72.6131 41.0398 76.9404 41.0398 82.2578ZM31.3941 96.6029C39.3043 96.6029 45.7393 90.168 45.7393 82.2578C45.7393 74.3475 39.3043 67.9126 31.3941 67.9126C23.4849 67.9126 17.049 74.3475 17.049 82.2578C17.049 90.1669 23.4839 96.6029 31.3941 96.6029Z" fill="#737373"/>
<path d="M13.2274 85.7172C12.7941 83.4385 12.7951 81.0727 13.2285 78.7939H4.18823V85.7172H13.2274Z" fill="#A1A1A1"/>
<path d="M93.5963 78.7971C94.0296 81.0758 94.0286 83.4417 93.5952 85.7204H125.955C125.521 83.4417 125.52 81.0758 125.955 78.7971H93.5973H93.5963Z" fill="#A1A1A1"/>
<path d="M129.777 82.2578C129.777 90.167 136.212 96.603 144.123 96.603C157.981 96.603 163.645 78.8563 152.653 70.7326C143.152 63.7108 129.777 70.5729 129.777 82.2589V82.2578ZM144.123 91.9014C138.806 91.9014 134.479 87.5741 134.479 82.2578C134.479 76.9415 138.806 72.6132 144.123 72.6132C149.439 72.6132 153.766 76.9405 153.766 82.2578C153.766 87.5741 149.439 91.9014 144.123 91.9014Z" fill="#737373"/>
<path d="M138.625 82.2565C138.625 89.4908 149.619 89.4908 149.619 82.2565C149.619 75.0212 138.625 75.0223 138.625 82.2565Z" fill="#E9F1FF"/>
<path d="M159.556 56.9525H166.516V47.2343H159.556V56.9525Z" fill="#FFCC00"/>
<path d="M127.5 28.4652H153.321L143.467 13.0885L127.5 13.0895V28.4652Z" fill="#CCCCCC"/>
<path d="M157.114 32.6111H125.428C124.284 32.6111 123.355 31.6822 123.355 30.5376V11.015C123.355 9.87049 124.285 8.94159 125.428 8.94159H144.6C145.305 8.94159 145.964 9.30133 146.345 9.89537L158.857 29.4179C159.74 30.7947 158.75 32.609 157.114 32.609V32.6111ZM127.441 43.8709C124.711 43.8709 124.712 39.7251 127.441 39.7251H140.887C143.617 39.7251 143.617 43.8709 140.887 43.8709H127.441ZM144.122 63.7657C151.439 63.7657 158.018 68.093 160.98 74.6492H166.517V61.1003H157.483C156.338 61.1003 155.409 60.1703 155.409 59.0268V45.1596C155.409 44.015 156.339 43.0861 157.483 43.0861H166.517V32.1601L148.746 4.44116H116.313V74.6482L127.265 74.6472C130.224 68.0982 136.796 63.7636 144.122 63.7636V63.7657Z" fill="#37B3D2"/>
<path d="M168.589 78.7971H162.29C162.724 81.0758 162.723 83.4417 162.29 85.7204H172.802V78.7971H168.59H168.589Z" fill="#A1A1A1"/>
<path d="M51.7159 51.9058H20.4535C19.3089 51.9058 18.38 50.9769 18.38 49.8323V33.9849C18.38 32.8404 19.3089 31.9115 20.4535 31.9115H51.7159C52.8604 31.9115 53.7894 32.8404 53.7894 33.9849V49.8323C53.7894 50.9769 52.8615 51.9058 51.7169 51.9058H51.7159ZM22.5259 47.7599H49.6425V36.0584H22.5259V47.7599Z" fill="#212121"/>
<path d="M82.976 51.9058H51.7157C50.5711 51.9058 49.6422 50.9769 49.6422 49.8323V33.9849C49.6422 32.8404 50.5711 31.9115 51.7157 31.9115H82.976C84.1206 31.9115 85.0495 32.8404 85.0495 33.9849V49.8323C85.0495 50.9769 84.1206 51.9058 82.976 51.9058ZM53.7881 47.7599H80.9026V36.0584H53.7881V47.7599Z" fill="#212121"/>
<path d="M114.239 51.9058H82.9763C81.8317 51.9058 80.9028 50.9769 80.9028 49.8323V33.9849C80.9028 32.8404 81.8317 31.9115 82.9763 31.9115H114.239C115.383 31.9115 116.312 32.8404 116.312 33.9849V49.8323C116.314 50.9769 115.384 51.9058 114.239 51.9058ZM85.0497 47.7599H112.166V36.0584H85.0497V47.7599Z" fill="#212121"/>
<path d="M67.3457 36.0571H36.0832C34.9387 36.0571 34.0098 35.1282 34.0098 33.9837V18.1342C34.0098 16.9897 34.9387 16.0608 36.0832 16.0608H67.3457C68.4902 16.0608 69.4191 16.9897 69.4191 18.1342V33.9827C69.4191 35.1293 68.4913 36.0571 67.3457 36.0571ZM38.1567 31.9113H65.2733V20.2098H38.1567V31.9113Z" fill="#212121"/>
<path d="M98.6081 36.0571H67.3446C66.2 36.0571 65.2711 35.1282 65.2711 33.9837V18.1342C65.2711 16.9897 66.2 16.0608 67.3446 16.0608H98.6081C99.7526 16.0608 100.682 16.9897 100.682 18.1342V33.9827C100.682 35.1293 99.7526 36.0571 98.6081 36.0571ZM69.418 31.9113H96.5336V20.2098H69.418V31.9113Z" fill="#212121"/>
<path d="M82.976 20.2079H51.7157C50.5711 20.2079 49.6422 19.279 49.6422 18.1345V2.28707C49.6422 1.14253 50.5711 0.213623 51.7157 0.213623H82.976C84.1206 0.213623 85.0495 1.14253 85.0495 2.28707V18.1345C85.0495 19.2811 84.1206 20.2079 82.976 20.2079ZM53.7881 16.061H80.9026V4.35949H53.7881V16.061Z" fill="#212121"/>
<path d="M98.608 36.0571H85.0497V47.7586H112.165V36.0571H98.608Z" fill="#D7A199"/>
<path d="M82.9761 31.9114H96.5334V20.2098L69.4178 20.2078V31.9114H82.9761Z" fill="#D7A199"/>
<path d="M67.3455 16.0617H80.9027V4.36023H53.7882V16.0617H67.3455Z" fill="#D7A199"/>
<path d="M65.2721 20.21H38.1555V31.9115H65.2721V20.21Z" fill="#D7A199" stroke="#D7A199" stroke-width="3" stroke-miterlimit="2.613"/>
<path d="M67.3455 36.0571H53.7882V47.7586H80.9027V36.0571H67.3455Z" fill="#D7A199"/>
<path d="M49.6423 47.7586V36.0571C40.6031 36.0571 31.565 36.0571 22.5258 36.0571V47.7586H49.6423Z" fill="#D7A199"/>
<path d="M57.2613 78.7971H49.5605C49.9939 81.0769 49.9929 83.4406 49.5605 85.7204H57.2624C56.829 83.4417 56.828 81.0758 57.2613 78.7971Z" fill="#A1A1A1"/>
</svg>
