<svg width="146" height="180" viewBox="0 0 146 180" fill="none" xmlns="http://www.w3.org/2000/svg">
<path d="M133.702 167.239C132.542 167.239 131.6 166.296 131.6 165.137V78.4668C131.6 75.6998 135.804 75.6998 135.804 78.4668V165.136C135.806 166.296 134.863 167.239 133.701 167.239H133.702ZM12.1612 167.239C11.0005 167.239 10.0586 166.296 10.0586 165.137V78.4668C10.0586 75.6987 14.2627 75.6987 14.2627 78.4668V165.136C14.2627 166.296 13.3218 167.239 12.1601 167.239H12.1612Z" fill="#212121"/>
<path d="M120.73 50.8254C119.569 50.8254 118.627 49.8834 118.627 48.7228V17.8151C118.627 15.0481 122.831 15.0481 122.831 17.8151V48.7238C122.831 49.8845 121.89 50.8254 120.728 50.8254H120.73ZM100.416 35.6806C99.2549 35.6806 98.313 34.7386 98.313 33.578V17.814C98.313 15.047 102.517 15.047 102.517 17.814V33.578C102.517 34.7386 101.575 35.6806 100.415 35.6806H100.416Z" fill="#212121"/>
<path d="M143.761 80.5693H2.10257C0.94195 80.5693 0 79.6273 0 78.4667V65.8944C0 65.23 0.314335 64.6056 0.845233 64.2103L71.6765 11.4022C72.4219 10.8461 73.4437 10.8461 74.1891 11.4022L145.018 64.2103C145.551 64.6056 145.866 65.2321 145.866 65.8944V78.4667C145.864 79.6284 144.923 80.5693 143.762 80.5693H143.761ZM4.20513 76.3652H141.658V66.9489L72.9328 15.7083L4.20619 66.9489V76.3652H4.20513Z" fill="#212121"/>
<path d="M128.91 19.9166H92.2322C91.0716 19.9166 90.1296 18.9746 90.1296 17.814V2.10257C90.1296 0.94195 91.0726 0 92.2322 0H128.91C130.071 0 131.013 0.94195 131.013 2.10257V17.813C131.014 18.9736 130.071 19.9155 128.91 19.9155V19.9166ZM94.3358 15.7125H126.808V4.20408H94.3358V15.7125Z" fill="#212121"/>
<path d="M66.8817 167.239C65.7211 167.239 64.7791 166.296 64.7791 165.137V112.334H33.3594V165.136C33.3594 167.904 29.1543 167.903 29.1543 165.136V110.232C29.1543 109.072 30.0962 108.13 31.2569 108.13H66.8807C68.0413 108.13 68.9832 109.073 68.9832 110.232V165.136C68.9832 166.296 68.0413 167.239 66.8807 167.239H66.8817Z" fill="#212121"/>
<path d="M40.3745 143.77C39.2139 143.77 38.272 142.827 38.272 141.668V133.704C38.272 130.936 42.4761 130.938 42.4761 133.704V141.668C42.4761 142.827 41.5341 143.77 40.3735 143.77H40.3745Z" fill="#212121"/>
<path d="M116.76 140.416H83.823C82.6624 140.416 81.7205 139.473 81.7205 138.313V110.232C81.7205 109.072 82.6635 108.13 83.823 108.13H116.76C117.92 108.13 118.862 109.073 118.862 110.232V138.311C118.862 139.472 117.921 140.416 116.76 140.416ZM85.9266 136.21H114.657V112.335H85.9266V136.21Z" fill="#212121"/>
<path d="M100.307 132.873C98.4517 132.873 97.4908 130.61 98.8197 129.283L105.344 122.759C107.305 120.799 110.273 123.778 108.318 125.734C106.272 127.779 101.911 132.873 100.307 132.873Z" fill="#212121"/>
<path d="M93.7525 129.519C91.897 129.519 90.9362 127.257 92.265 125.929L101.906 116.29C103.866 114.329 106.836 117.309 104.88 119.264L95.2401 128.903C94.8291 129.314 94.2908 129.519 93.7536 129.519H93.7525Z" fill="#212121"/>
<path d="M143.761 179.39H2.10354C0.942927 179.39 0.000976562 178.447 0.000976562 177.287V165.137C0.000976562 163.976 0.942927 163.034 2.10354 163.034H143.761C144.921 163.034 145.863 163.977 145.863 165.137V177.287C145.863 178.447 144.923 179.39 143.761 179.39ZM4.20611 175.184H141.658V167.239H4.20611V175.184Z" fill="#212121"/>
<path d="M72.5469 65.392C65.2636 65.392 59.3396 59.467 59.3396 52.1847C59.3396 44.9014 65.2646 38.9753 72.5469 38.9753C79.8281 38.9753 85.7563 44.9014 85.7563 52.1847C85.7563 59.467 79.8291 65.392 72.5469 65.392ZM72.5469 43.1784C60.6979 43.1784 60.6968 61.1869 72.5469 61.1869C84.3969 61.1869 84.3948 43.1784 72.5469 43.1784Z" fill="#212121"/>
<path d="M85.7563 52.1848C85.7563 59.467 79.8292 65.392 72.5469 65.392C65.2636 65.392 59.3396 59.467 59.3396 52.1848C59.3396 44.9015 65.2647 38.9754 72.5469 38.9754C79.8281 38.9754 85.7563 44.9015 85.7563 52.1848ZM12.1601 76.3653H141.657V66.949L72.9317 15.7084L4.20508 66.949V76.3653H12.1612H12.1601Z" fill="#D62966"/>
<path d="M72.5469 61.1868C77.511 61.1868 81.5501 57.1467 81.5501 52.1836C81.5501 47.2195 77.511 43.1783 72.5469 43.1783C67.5817 43.1783 63.5437 47.2184 63.5437 52.1836C63.5437 57.1489 67.5838 61.1868 72.5469 61.1868Z" fill="#FFD08C"/>
<path d="M102.518 32.5236L118.627 44.5335V19.9166H102.518V32.5236Z" fill="#FFD08C"/>
<path d="M100.415 15.7125H126.809V4.2041H94.3369V15.7125H100.416H100.415Z" fill="#D62966"/>
<path d="M131.6 80.5693H14.2627V163.035H29.1552V110.232C29.1552 109.072 30.0971 108.13 31.2577 108.13H66.8815C68.0422 108.13 68.9841 109.073 68.9841 110.232V163.035H131.6V80.5693ZM83.824 108.131H116.761C117.921 108.131 118.863 109.074 118.863 110.233V138.312C118.863 139.473 117.922 140.417 116.761 140.417H83.824C82.6634 140.417 81.7215 139.474 81.7215 138.314V110.233C81.7215 109.073 82.6645 108.131 83.824 108.131Z" fill="#FFD08C"/>
<path d="M114.657 112.335H85.9268V136.21H114.657V112.335ZM105.344 122.759C107.305 120.799 110.273 123.778 108.318 125.734L101.794 132.257C99.8531 134.202 96.8391 131.263 98.8197 129.283L105.344 122.759ZM104.88 119.263L95.2401 128.902C93.2963 130.846 90.2864 127.908 92.266 125.928L101.907 116.289C103.868 114.328 106.837 117.308 104.881 119.263H104.88Z" fill="#4682BF"/>
<path d="M64.7791 163.035V112.334H33.3594V163.035H64.7791ZM42.4761 133.704V141.668C42.4761 144.435 38.272 144.435 38.272 141.668V133.704C38.272 130.936 42.4761 130.937 42.4761 133.704Z" fill="#FFA871"/>
<path d="M66.8815 167.239H4.20605V175.185H141.658V167.239H66.8815Z" fill="#D62966"/>
</svg>
