<svg width="100" height="101" viewBox="0 0 100 101" fill="none" xmlns="http://www.w3.org/2000/svg">
<path d="M14.7048 86.2035C19.2866 90.7852 24.6238 94.383 30.5686 96.8975C36.7272 99.5024 43.2648 100.823 50 100.823C56.7351 100.823 63.2728 99.5024 69.4314 96.8975C75.376 94.383 80.7134 90.785 85.2954 86.2035C89.877 81.6216 93.4752 76.2843 95.9894 70.3396C98.5942 64.181 99.9151 57.6432 99.9151 50.9083C99.9151 44.173 98.5942 37.6354 95.9894 31.477C93.4752 25.5322 89.8769 20.195 85.2954 15.6131C80.7134 11.0313 75.3762 7.43332 69.4314 4.91899C63.2726 2.314 56.7351 0.993393 50 0.993393C43.2648 0.993393 36.7272 2.31417 30.5686 4.91899C24.6238 7.43332 19.2866 11.0315 14.7048 15.6131C10.123 20.1948 6.52498 25.5322 4.01048 31.4768C1.40583 37.6354 0.0850525 44.173 0.0850525 50.9083C0.0850525 57.6434 1.40583 64.181 4.01065 70.3396C6.52498 76.2843 10.1232 81.6216 14.7048 86.2035ZM50 8.28022C73.5429 8.28022 92.628 27.3655 92.628 50.9083C92.628 74.4511 73.5429 93.5361 50 93.5361C26.4571 93.5361 7.37188 74.4511 7.37188 50.9083C7.37188 27.3655 26.4571 8.28022 50 8.28022Z" fill="black"/>
<path d="M50 100.908C43.2529 100.908 36.7043 99.585 30.5355 96.976C24.5805 94.457 19.2341 90.8529 14.6448 86.2636C10.0551 81.6738 6.45099 76.3272 3.9324 70.3726C1.32299 64.2034 0 57.6546 0 50.9084C0 44.1619 1.32299 37.6129 3.93223 31.4436C6.45082 25.489 10.0551 20.1426 14.6446 15.5529C19.2341 10.9633 24.5806 7.35917 30.5353 4.84059C36.7046 2.23135 43.2534 0.908356 49.9998 0.908356C56.7468 0.908356 63.2956 2.23135 69.4642 4.84076C75.419 7.35934 80.7654 10.9636 85.3552 15.5531C89.9451 20.1431 93.5492 25.4895 96.0676 31.4438C98.677 37.6131 100 44.1619 100 50.9084C100 57.6546 98.677 64.2034 96.0676 70.3727C93.5492 76.3272 89.9452 81.6736 85.3552 86.2638C80.7658 90.8529 75.4192 94.457 69.4642 96.9761C63.2956 99.585 56.7468 100.908 50 100.908ZM50 1.07845C43.2764 1.07845 36.75 2.39685 30.6018 4.99725C24.6674 7.50733 19.339 11.0992 14.765 15.6732C10.1908 20.2474 6.59897 25.5756 4.08889 31.5098C1.48849 37.6582 0.170094 44.1847 0.170094 50.9084C0.170094 57.6317 1.48849 64.1583 4.08889 70.3066C6.59897 76.241 10.1908 81.5692 14.765 86.1433C19.3388 90.717 24.667 94.3089 30.6018 96.8193C36.7493 99.4195 43.2758 100.738 50 100.738C56.7242 100.738 63.2505 99.4195 69.3982 96.8191C75.3328 94.3089 80.6612 90.717 85.235 86.1433C89.8093 81.5687 93.401 76.2405 95.9108 70.3066C98.5113 64.1583 99.8299 57.6318 99.8299 50.9084C99.8299 44.1847 98.5113 37.6582 95.9108 31.5101C93.4012 25.5761 89.8093 20.2479 85.235 15.6734C80.6608 11.0994 75.3325 7.50749 69.3982 4.99742C63.2503 2.39685 56.7238 1.07845 50 1.07845ZM50 93.6212C38.5909 93.6212 27.8646 89.1783 19.7972 81.1109C11.7299 73.0434 7.28683 62.3174 7.28683 50.9084C7.28683 39.4993 11.7297 28.773 19.7972 20.7056C27.8646 12.6382 38.5909 8.19519 50 8.19519C61.4091 8.19519 72.1352 12.6382 80.2026 20.7056C88.2701 28.7732 92.713 39.4993 92.713 50.9084C92.713 62.3174 88.2701 73.0435 80.2026 81.1109C72.1352 89.1783 61.4089 93.6212 50 93.6212ZM50 8.36528C38.6364 8.36528 27.9529 12.7906 19.9175 20.8259C11.8823 28.8613 7.45692 39.5447 7.45692 50.9084C7.45692 62.272 11.8823 72.9554 19.9175 80.9905C27.9527 89.0258 38.6364 93.4511 50 93.4511C61.3636 93.4511 72.0471 89.0258 80.0823 80.9905C88.1176 72.9554 92.5429 62.2718 92.5429 50.9084C92.5429 39.5447 88.1176 28.8611 80.0823 20.8259C72.0469 12.7904 61.3636 8.36528 50 8.36528Z" fill="black"/>
<path d="M31.4538 69.4542C32.1653 70.1659 33.0976 70.5216 34.03 70.5216C34.9625 70.5216 35.895 70.1657 36.6063 69.4542L49.9998 56.0607L63.3936 69.4542C64.1049 70.1659 65.0373 70.5216 65.9698 70.5216C66.9023 70.5216 67.8345 70.1657 68.546 69.4542C69.9689 68.0317 69.9689 65.7247 68.546 64.3019L55.1522 50.9083L68.5457 37.5146C69.9685 36.0918 69.9685 33.7848 68.5457 32.3621C67.1232 30.9393 64.8162 30.9393 63.3934 32.3621L49.9997 45.7559L36.6061 32.3621C35.1833 30.9393 32.8763 30.9393 31.4536 32.3621C30.0308 33.785 30.0308 36.0918 31.4536 37.5146L44.8473 50.9083L31.4536 64.3019C30.031 65.7247 30.031 68.0317 31.4538 69.4542Z" fill="black"/>
<path d="M65.97 70.6068C64.9739 70.6068 64.0377 70.219 63.3335 69.5144L50 56.1809L36.6667 69.5144C35.9625 70.219 35.0261 70.6068 34.0302 70.6068C33.0343 70.6068 32.098 70.219 31.3938 69.5144C30.6896 68.8102 30.3018 67.874 30.3018 66.8783C30.3018 65.8824 30.6896 64.9462 31.3938 64.2419L44.7273 50.9084L31.3938 37.5749C29.9401 36.1211 29.9401 33.7557 31.3938 32.3019C32.098 31.5977 33.0341 31.2099 34.0302 31.2099C35.0261 31.2099 35.9625 31.5977 36.6667 32.3019L50.0002 45.6354L63.3337 32.3019C64.038 31.5977 64.9742 31.2099 65.9701 31.2099C66.9659 31.2099 67.9021 31.5977 68.6063 32.3019C69.3106 33.0061 69.6983 33.9425 69.6983 34.9384C69.6983 35.9343 69.3106 36.8707 68.6063 37.5749L55.2728 50.9084L68.6066 64.2419C69.311 64.9462 69.6988 65.8824 69.6988 66.8783C69.6988 67.874 69.311 68.8102 68.6066 69.5144C67.9019 70.2188 66.9657 70.6068 65.97 70.6068ZM50 55.9404L63.4538 69.3942C64.1256 70.0664 65.0193 70.4367 65.97 70.4367C66.9203 70.4367 67.814 70.0664 68.4862 69.3942C69.1582 68.7223 69.5285 67.8288 69.5285 66.8783C69.5285 65.9278 69.1582 65.0342 68.4862 64.3621L55.0321 50.9084L68.4858 37.4546C69.1579 36.7826 69.528 35.8889 69.528 34.9384C69.528 33.9879 69.1579 33.0944 68.4858 32.4224C67.814 31.7503 66.9205 31.3802 65.97 31.3802C65.0195 31.3802 64.1258 31.7503 63.4538 32.4224L50 45.8761L36.5462 32.4224C35.8742 31.7503 34.9805 31.3802 34.03 31.3802C33.0796 31.3802 32.1861 31.7503 31.514 32.4224C30.1267 33.8098 30.1267 36.0671 31.514 37.4546L44.9678 50.9084L31.514 64.3621C30.842 65.0342 30.4719 65.9278 30.4719 66.8783C30.4719 67.8288 30.842 68.7223 31.514 69.3942C32.1862 70.0664 33.0797 70.4367 34.0302 70.4367C34.9807 70.4367 35.8742 70.0664 36.5464 69.3942L50 55.9404Z" fill="black"/>
</svg>
