<svg width="512" height="378" viewBox="0 0 512 378" fill="none" xmlns="http://www.w3.org/2000/svg">
<path d="M501.3 330.4C501.3 350.3 485.2 366.4 465.3 366.4H46.7C26.8 366.4 10.7 350.3 10.7 330.4C10.7 310.5 26.8 294.4 46.7 294.4H465.3C485.2 294.3 501.3 310.5 501.3 330.4Z" fill="#FFB800"/>
<path d="M479.5 286.1V258.3C479.5 157.2 411.6 68.1 312.1 42.1L308.4 24.8C305.3 10.4 292.3 0 277.6 0H234.4C219.7 0 206.8 10.4 203.6 24.8L199.9 42.1C102.1 67.6 32.5 155.5 32.5 258.3V286.1C13.7 292.2 0 309.6 0 330.4C0 356.2 21 377.1 46.7 377.1H465.3C491.1 377.1 512 356.1 512 330.4C512 309.6 498.3 292.2 479.5 286.1V286.1ZM53.8 258.3C53.8 206 73.9 156.4 109.6 119V211.1C109.6 217 114.4 221.8 120.3 221.8C126.2 221.8 131 217 131 211.1V99.6C150 84.6 171.7 73.1 194.8 65.7L175.4 156C174.2 161.8 177.8 167.4 183.6 168.7C189.3 169.9 195 166.3 196.3 160.5L224.6 29.3C225.6 24.7 229.8 21.3 234.5 21.3H277.7C282.4 21.3 286.6 24.7 287.6 29.3L315.9 160.5C317.1 166.2 322.8 169.9 328.6 168.7C334.4 167.5 338 161.8 336.8 156L317.4 65.7C340.5 73.1 362.3 84.6 381.2 99.6V211C381.2 216.9 386 221.7 391.9 221.7C397.8 221.7 402.6 216.9 402.6 211V118.9C438.3 156.3 458.4 205.9 458.4 258.3V283.5H53.8V258.3ZM465.3 355.7H46.7C32.7 355.7 21.3 344.3 21.3 330.3C21.3 316.3 32.7 304.9 46.7 304.9H465.3C479.3 304.9 490.7 316.3 490.7 330.3C490.7 344.4 479.3 355.7 465.3 355.7Z" fill="black"/>
</svg>
