<svg width="512" height="359" viewBox="0 0 512 359" fill="none" xmlns="http://www.w3.org/2000/svg">
<path d="M0 25.6C0 11.462 11.462 0 25.6 0H486.4C500.538 0 512 11.462 512 25.6C512 39.738 500.538 51.2 486.4 51.2H25.6C11.462 51.2 0 39.737 0 25.6H0ZM486.4 153.6H25.6C11.462 153.6 0 165.063 0 179.2C0 193.338 11.462 204.8 25.6 204.8H486.4C500.538 204.8 512 193.338 512 179.2C512 165.063 500.538 153.6 486.4 153.6ZM486.4 307.2H25.6C11.462 307.2 0 318.662 0 332.8C0 346.937 11.462 358.4 25.6 358.4H486.4C500.538 358.4 512 346.937 512 332.8C512 318.662 500.538 307.2 486.4 307.2Z" fill="#D6DA1A"/>
</svg>
