<svg width="51" height="59" viewBox="0 0 51 59" fill="none" xmlns="http://www.w3.org/2000/svg">
<path d="M46.3174 58.39H11.9138C9.78031 58.39 8.04407 56.6544 8.04407 54.5202V10.4C8.04407 8.26646 9.77963 6.53021 11.9138 6.53021H41.4594C41.6408 6.53021 41.8149 6.60241 41.9436 6.73073L49.9873 14.7741C50.1156 14.9024 50.1879 15.0763 50.1879 15.2576V54.5202C50.1872 56.6544 48.4509 58.39 46.3171 58.39H46.3174ZM11.9138 7.89895C10.5348 7.89895 9.41246 9.02097 9.41246 10.4003V54.5206C9.41246 55.8996 10.5345 57.0216 11.9138 57.0216H46.3177C47.6967 57.0216 48.8191 55.9002 48.8191 54.5206V15.5413L41.1757 7.89895H11.9135H11.9138Z" fill="#212121"/>
<path d="M49.5031 15.9427H41.4598C41.082 15.9427 40.7754 15.6361 40.7754 15.2584V7.21498C40.7754 6.60794 41.5138 6.30066 41.944 6.73113L49.9873 14.7745C50.4171 15.2046 50.1102 15.9427 49.5031 15.9427ZM42.1441 14.574H47.8511L42.1441 8.8667V14.574Z" fill="#212121"/>
<path d="M8.72844 51.8598H3.87011C1.73659 51.8598 0 50.1235 0 47.9893V3.86976C0 1.73624 1.7359 0 3.87011 0H33.416C35.5495 0 37.2861 1.7359 37.2861 3.86976V7.21496C37.2861 8.11559 35.9177 8.11559 35.9177 7.21496V3.86976C35.9171 2.49042 34.795 1.3684 33.416 1.3684H3.87011C2.4911 1.3684 1.36874 2.49042 1.36874 3.86976V47.99C1.36874 49.369 2.49076 50.4914 3.87011 50.4914H8.72844C9.62907 50.4914 9.62941 51.8598 8.72844 51.8598Z" fill="#212121"/>
<path d="M36.0943 38.2275H16.0779C15.7001 38.2275 15.3935 37.9205 15.3935 37.5431V23.2695C15.3935 22.3686 16.7619 22.3686 16.7619 23.2695V36.8584H35.4099V23.2695C35.4099 22.3689 36.7783 22.3689 36.7783 23.2695V37.5431C36.7783 37.9209 36.4721 38.2271 36.0939 38.2271L36.0943 38.2275Z" fill="#212121"/>
<path d="M37.7505 23.9542H14.4213C13.4636 23.9542 13.737 22.5287 13.737 21.1997C13.737 20.9834 13.8389 20.7801 14.0121 20.6515L25.6768 11.9549C25.9191 11.7738 26.2524 11.7738 26.4946 11.9549L38.1594 20.6515C38.6145 20.9899 38.4352 22.2782 38.4352 23.2702C38.4352 23.6483 38.1279 23.9546 37.7505 23.9546V23.9542ZM15.1057 22.5855H37.0661V21.5425L26.0857 13.3561L15.1057 21.5432V22.5855Z" fill="#212121"/>
<path d="M25.0896 38.2275C24.7119 38.2275 24.4053 37.9206 24.4053 37.5431V29.1856H19.9069V37.5431C19.9069 38.4441 18.5385 38.4434 18.5385 37.5431V28.5013C18.5385 28.1235 18.8451 27.8169 19.2229 27.8169H25.09C25.4677 27.8169 25.7743 28.1235 25.7743 28.5013V37.5431C25.7743 37.9209 25.4684 38.2275 25.09 38.2275H25.0896Z" fill="#212121"/>
<path d="M21.1467 34.3632C20.2591 34.3632 20.4623 33.2333 20.4623 32.3673C20.4623 31.4663 21.8307 31.4666 21.8307 32.3673C21.8307 33.2337 22.0343 34.3632 21.1463 34.3632H21.1467Z" fill="#212121"/>
<path d="M33.3041 33.8099H27.8798C27.502 33.8099 27.1954 33.5029 27.1954 33.1255V28.5016C27.1954 28.1238 27.5024 27.8172 27.8798 27.8172H33.3041C33.6819 27.8172 33.9885 28.1238 33.9885 28.5016V33.1255C33.9885 33.5033 33.6819 33.8099 33.3041 33.8099ZM28.5642 32.4411H32.6191V29.1856H28.5642V32.4411Z" fill="#212121"/>
<path d="M26.0232 21.4546C22.7149 21.4546 22.7156 16.4279 26.0232 16.4279C29.3314 16.4279 29.3314 21.4546 26.0232 21.4546ZM26.0232 17.7967C24.5165 17.7967 24.5165 20.0862 26.0232 20.0862C27.5298 20.0862 27.5298 17.7967 26.0232 17.7967Z" fill="#212121"/>
<path d="M35.0339 19.858C34.6561 19.858 34.3495 19.5514 34.3495 19.1736V13.4273H31.4923V16.0228C31.4923 16.9234 30.1235 16.9234 30.1235 16.0228V12.743C30.1235 12.3652 30.4305 12.0586 30.8079 12.0586H35.0342C35.412 12.0586 35.7186 12.3652 35.7186 12.743V19.1736C35.7186 19.5521 35.4117 19.858 35.0339 19.858Z" fill="#212121"/>
<path d="M43.6566 43.1234H14.5754C13.6747 43.1234 13.6747 41.7547 14.5754 41.7547H43.6566C44.5572 41.7547 44.5576 43.1234 43.6566 43.1234Z" fill="#212121"/>
<path d="M43.6566 48.1128H14.5754C13.6747 48.1128 13.6747 46.7441 14.5754 46.7441H43.6566C44.5572 46.7441 44.5576 48.1128 43.6566 48.1128Z" fill="#212121"/>
<path d="M43.6566 53.1023H14.5754C13.6747 53.1023 13.6747 51.7339 14.5754 51.7339H43.6566C44.5572 51.7339 44.5576 53.1023 43.6566 53.1023Z" fill="#212121"/>
<path d="M26.0231 20.0862C27.5297 20.0862 27.5297 17.7967 26.0231 17.7967C24.5165 17.7967 24.5165 20.0862 26.0231 20.0862Z" fill="#FFD08C"/>
<path d="M28.5365 18.9416C28.5365 20.3271 27.409 21.4549 26.0228 21.4549C24.6366 21.4549 23.5094 20.3271 23.5094 18.9416C23.5094 17.5561 24.6373 16.4282 26.0228 16.4282C27.409 16.4282 28.5365 17.5561 28.5365 18.9416ZM16.0779 22.5858H37.0661V21.5429L26.0857 13.3564L15.1057 21.5435V22.5858H16.0779Z" fill="#D62966"/>
<path d="M32.6194 29.1859H28.5642V32.4411H32.6194V29.1859Z" fill="#4682BF"/>
<path d="M33.3041 33.8099H27.8798C27.5021 33.8099 27.1955 33.5029 27.1955 33.1255V28.5016C27.1955 28.1238 27.5024 27.8172 27.8798 27.8172H33.3041C33.6819 27.8172 33.9885 28.1238 33.9885 28.5016V33.1255C33.9885 33.5033 33.6819 33.8099 33.3041 33.8099ZM25.774 36.8587H35.4103V23.9543H16.7623V36.8587H18.5385V28.5016C18.5385 28.1238 18.8451 27.8172 19.2229 27.8172H25.09C25.4678 27.8172 25.7744 28.1238 25.7744 28.5016V36.8587H25.774Z" fill="#FFD08C"/>
<path d="M24.4053 36.8587V29.1859H19.9069V36.8587H24.4053ZM21.8307 33.6788C21.8307 34.5798 20.4623 34.5798 20.4623 33.6788C20.4623 32.812 20.259 31.6828 21.1467 31.6828C22.0343 31.6828 21.831 32.8127 21.831 33.6788H21.8307Z" fill="#FFD08C"/>
<path d="M31.4923 15.6802L34.3496 17.8107V13.4273H31.4923V15.6802Z" fill="#FFD08C"/>
<path d="M35.7186 12.7433V18.8314L38.1594 20.6515C38.3329 20.7802 38.4352 20.9841 38.4352 21.1997C38.4352 24.072 38.698 23.9543 36.7787 23.9543V37.5435C36.7787 37.9212 36.4724 38.2275 36.0943 38.2275C29.4221 38.2275 22.7498 38.2275 16.0779 38.2275C15.7001 38.2275 15.3935 37.9205 15.3935 37.5431V23.9539C13.4745 23.9539 13.737 24.072 13.737 21.1994C13.737 20.9831 13.839 20.7798 14.0121 20.6512L25.6768 11.9546C25.9191 11.7735 26.2524 11.7735 26.4947 11.9546L30.1235 14.6602V12.7433C30.1235 12.3655 30.4305 12.0589 30.8079 12.0589H35.0342C35.412 12.0589 35.7186 12.3655 35.7186 12.7433ZM14.5754 41.7547H43.6566C44.5572 41.7547 44.5572 43.1235 43.6566 43.1235H14.5754C13.6747 43.1235 13.6747 41.7547 14.5754 41.7547ZM9.41248 10.4004V54.5206C9.41248 55.8996 10.5345 57.0216 11.9138 57.0216H46.3178C47.6968 57.0216 48.8191 55.9003 48.8191 54.5206V15.9424H41.4594C41.0816 15.9424 40.775 15.6358 40.775 15.258V7.89899C31.1545 7.89899 21.534 7.89899 11.9138 7.89899C10.5348 7.89899 9.41248 9.02101 9.41248 10.4004ZM14.5754 46.7441H43.6566C44.5572 46.7441 44.5572 48.1128 43.6566 48.1128H14.5754C13.6747 48.1128 13.6747 46.7441 14.5754 46.7441ZM14.5754 51.7335H43.6566C44.5572 51.7335 44.5572 53.1019 43.6566 53.1019H14.5754C13.6747 53.1019 13.6747 51.7335 14.5754 51.7335Z" fill="#E6E6E6"/>
<path d="M42.1438 8.8667V14.574H47.8508L42.1438 8.8667Z" fill="#BABABA"/>
<path d="M8.04409 50.491V10.4C8.04409 8.2665 9.77964 6.53026 11.9138 6.53026H35.9174V3.86978C35.9167 2.49043 34.7947 1.36841 33.4157 1.36841H3.86978C2.49077 1.36841 1.36841 2.49043 1.36841 3.86978V47.99C1.36841 49.369 2.49043 50.4914 3.86978 50.4914H8.04374L8.04409 50.491Z" fill="#CFCFCF"/>
</svg>
