<svg width="163" height="131" viewBox="0 0 163 131" fill="none" xmlns="http://www.w3.org/2000/svg">
<path d="M159.163 120.633H146.594C144.086 120.633 144.088 116.824 146.594 116.824H158.738V110.463L146.594 110.462C144.086 110.462 144.088 106.654 146.594 106.654C164.265 106.654 162.549 104.845 162.548 117.25C162.548 119.114 161.028 120.633 159.163 120.633ZM118.189 120.633H83.492C80.9844 120.633 80.9863 116.824 83.492 116.824H118.189C120.696 116.824 120.697 120.633 118.189 120.633ZM55.0871 120.633H43.0417C40.5351 120.633 40.5351 116.824 43.0417 116.824H55.0871C57.5937 116.824 57.5946 120.633 55.0871 120.633ZM14.6368 120.633C-1.49328 120.633 0.0390626 122.301 0.0390626 110.036C0.0390626 108.171 1.55616 106.651 3.42183 106.651H14.6368C17.1433 106.651 17.1433 110.461 14.6368 110.461H3.84658V116.821H14.6358C17.1443 116.821 17.1405 120.633 14.6377 120.633H14.6368ZM118.188 110.461H83.491C80.9835 110.461 80.9854 106.652 83.491 106.652H118.188C120.695 106.652 120.696 110.461 118.188 110.461ZM55.0861 110.461H43.0407C40.5341 110.461 40.5341 106.652 43.0407 106.652H55.0861C57.5927 106.652 57.5937 110.461 55.0861 110.461Z" fill="#212121"/>
<path d="M154.867 110.461H146.594C144.086 110.461 144.088 106.652 146.594 106.652H152.961V67.6236L136.639 42.1586H106.846V106.652H118.188C120.696 106.652 120.695 110.461 118.188 110.461H104.94C103.888 110.461 103.035 109.607 103.035 108.557V40.2548C103.035 39.2034 103.889 38.3501 104.94 38.3501H137.68C138.328 38.3501 138.932 38.6806 139.283 39.2263L156.47 66.0379C156.667 66.3446 156.773 66.7017 156.773 67.0655V108.557C156.773 109.608 155.918 110.461 154.867 110.461Z" fill="#212121"/>
<path d="M144.325 68.035H115.219C114.167 68.035 113.314 67.1807 113.314 66.1303V48.1984C113.314 47.147 114.168 46.2937 115.219 46.2937H132.831C133.478 46.2937 134.083 46.6242 134.433 47.1708L145.927 65.1037C146.738 66.3684 145.826 68.035 144.325 68.035ZM117.123 64.2256H140.843L131.79 50.1022H117.123V64.2256Z" fill="#212121"/>
<path d="M5.09694 110.449C3.82555 110.449 2.897 109.218 3.27604 107.985L10.8673 83.2956C11.113 82.4966 11.851 81.95 12.6872 81.95H104.939C107.446 81.95 107.445 85.7584 104.939 85.7584H14.0957L6.91784 109.104C6.66642 109.923 5.91215 110.45 5.09789 110.45L5.09694 110.449Z" fill="#212121"/>
<path d="M132.392 130.628C123.025 130.628 115.404 123.006 115.404 113.639C115.404 104.273 123.025 96.6523 132.392 96.6523C141.758 96.6523 149.379 104.274 149.379 113.639C149.379 123.006 141.757 130.628 132.392 130.628ZM132.392 100.464C125.126 100.464 119.214 106.375 119.214 113.641C119.214 120.908 125.125 126.819 132.392 126.819C139.657 126.819 145.569 120.908 145.569 113.641C145.569 106.376 139.658 100.464 132.392 100.464Z" fill="#212121"/>
<path d="M69.2896 130.628C59.9232 130.628 52.3025 123.006 52.3025 113.639C52.3025 104.273 59.9223 96.6523 69.2896 96.6523C78.656 96.6523 86.2758 104.274 86.2758 113.639C86.2758 123.006 78.6551 130.628 69.2896 130.628ZM69.2896 100.464C62.0222 100.464 56.111 106.375 56.111 113.641C56.111 120.908 62.0222 126.819 69.2896 126.819C76.5561 126.819 82.4655 120.908 82.4655 113.641C82.4655 106.376 76.5552 100.464 69.2896 100.464Z" fill="#212121"/>
<path d="M28.8382 130.628C19.4718 130.628 11.8521 123.006 11.8521 113.639C11.8521 104.273 19.4718 96.6523 28.8382 96.6523C38.2056 96.6523 45.8244 104.274 45.8244 113.639C45.8244 123.006 38.2056 130.628 28.8382 130.628ZM28.8382 100.464C21.5727 100.464 15.6605 106.375 15.6605 113.641C15.6605 120.908 21.5718 126.819 28.8382 126.819C36.1047 126.819 42.016 120.908 42.016 113.641C42.016 106.376 36.1047 100.464 28.8382 100.464Z" fill="#212121"/>
<path d="M132.392 122.501C127.508 122.501 123.533 118.526 123.533 113.642C123.533 108.758 127.508 104.783 132.392 104.783C137.275 104.783 141.25 108.758 141.25 113.642C141.25 118.525 137.275 122.501 132.392 122.501ZM132.392 108.591C125.746 108.591 125.746 118.69 132.392 118.69C139.037 118.69 139.038 108.591 132.392 108.591Z" fill="#212121"/>
<path d="M69.2895 122.501C64.4039 122.501 60.4307 118.526 60.4307 113.642C60.4307 108.758 64.4048 104.783 69.2895 104.783C74.175 104.783 78.1492 108.758 78.1492 113.642C78.1492 118.525 74.175 122.501 69.2895 122.501ZM69.2895 108.591C62.643 108.591 62.643 118.69 69.2895 118.69C75.9369 118.69 75.9369 108.591 69.2895 108.591Z" fill="#212121"/>
<path d="M28.8393 122.501C23.9537 122.501 19.9805 118.526 19.9805 113.642C19.9805 108.758 23.9546 104.783 28.8393 104.783C33.7248 104.783 37.6981 108.758 37.6981 113.642C37.6981 118.525 33.7248 122.501 28.8393 122.501ZM28.8393 108.591C22.1918 108.591 22.1918 118.69 28.8393 118.69C35.4858 118.69 35.4867 108.591 28.8393 108.591Z" fill="#212121"/>
<path d="M154.867 94.2048H144.663C143.612 94.2048 142.759 93.3506 142.759 92.3001V79.5614C142.759 78.51 143.613 77.6567 144.663 77.6567H154.867C157.375 77.6567 157.373 81.4662 154.867 81.4662H146.569V90.3945H154.867C157.375 90.3945 157.373 94.2048 154.867 94.2048Z" fill="#212121"/>
<path d="M129.419 78.3775H117.067C114.56 78.3775 114.562 74.5681 117.067 74.5681H129.419C131.926 74.5681 131.926 78.3775 129.419 78.3775Z" fill="#212121"/>
<path d="M91.567 85.7591C90.5156 85.7591 89.6623 84.9049 89.6623 83.8544V37.1434C89.6623 34.6368 93.4717 34.6368 93.4717 37.1434V83.8544C93.4717 84.9039 92.6184 85.7591 91.567 85.7591ZM26.0622 85.7591C25.0108 85.7591 24.1575 84.9049 24.1575 83.8544V37.1434C24.1575 34.6358 27.9659 34.6358 27.9659 37.1434V83.8544C27.9659 84.9039 27.1126 85.7591 26.0612 85.7591H26.0622Z" fill="#212121"/>
<path d="M96.9896 39.0463H20.6413C19.5899 39.0463 18.7365 38.193 18.7365 37.1416C18.7365 34.1683 18.1947 29.8132 19.5022 28.839L57.6764 0.377847C58.3516 -0.125949 59.2773 -0.125949 59.9535 0.377847L98.1258 28.839C99.4362 29.8142 98.8934 34.1617 98.8934 37.1416C98.8934 38.1949 98.0401 39.0463 96.9887 39.0463H96.9896ZM22.546 35.2378H95.0858V31.3218L58.8145 4.2806L22.546 31.3218V35.2378Z" fill="#212121"/>
<path d="M55.5536 85.7594C54.5022 85.7594 53.6489 84.9051 53.6489 83.8547V56.1678H38.2579V83.8528C38.2579 86.3603 34.4495 86.3584 34.4495 83.8528V54.2631C34.4495 53.2117 35.3028 52.3584 36.3542 52.3584H55.5546C56.606 52.3584 57.4593 53.2117 57.4593 54.2631V83.8528C57.4593 84.9042 56.606 85.7584 55.5546 85.7584L55.5536 85.7594Z" fill="#212121"/>
<path d="M82.4359 71.3026H64.684C63.6326 71.3026 62.7793 70.4484 62.7793 69.3979V54.2631C62.7793 53.2117 63.6326 52.3584 64.684 52.3584H82.4349C83.4863 52.3584 84.3397 53.2117 84.3397 54.2631V69.396C84.3416 70.4474 83.4882 71.3017 82.4368 71.3017L82.4359 71.3026ZM66.5887 67.4923H80.5302V56.1678H66.5887V67.4923Z" fill="#212121"/>
<path d="M58.607 30.8674C48.2225 30.8674 48.2225 15.0869 58.607 15.0869C68.9914 15.0869 68.9914 30.8674 58.607 30.8674ZM58.607 18.8963C53.2347 18.8963 53.2347 27.059 58.607 27.059C63.9792 27.059 63.9782 18.8963 58.607 18.8963Z" fill="#212121"/>
<path d="M88.0966 25.642C87.0452 25.642 86.1919 24.7886 86.1919 23.7372V4.59872H76.1713V13.4261C76.1713 15.9336 72.3628 15.9336 72.3628 13.4261V2.69402C72.3628 1.64262 73.2161 0.789307 74.2675 0.789307H88.0966C89.148 0.789307 90.0014 1.64262 90.0014 2.69402V23.7382C90.0014 24.7886 89.148 25.642 88.0966 25.642Z" fill="#212121"/>
<path d="M89.6622 39.0461H27.9658V81.9488H34.4485V54.2629C34.4485 53.2115 35.3018 52.3582 36.3532 52.3582H55.5536C56.605 52.3582 57.4583 53.2115 57.4583 54.2629V81.9488H89.6631V39.0461H89.6622ZM82.4348 52.3582C83.4862 52.3582 84.3395 53.2115 84.3395 54.2629V69.3958C84.3414 70.4472 83.4881 71.3014 82.4367 71.3014H64.6848C63.6334 71.3014 62.7801 70.4472 62.7801 69.3967V54.2619C62.7801 53.2105 63.6334 52.3572 64.6848 52.3572H82.4357L82.4348 52.3582Z" fill="#FFD08C"/>
<path d="M80.5301 56.1677H66.5886V67.4922H80.5301V56.1677Z" fill="#4682BF"/>
<path d="M53.6491 81.9489V56.1677H38.2581V81.9489H53.6491Z" fill="#FFD08C"/>
<path d="M26.0622 35.2399L95.0851 35.238V31.3219L58.8137 4.28076L22.5452 31.3219V35.238L26.0613 35.2399H26.0622ZM58.608 30.8676C54.2567 30.8676 50.7177 27.3287 50.7177 22.9774C50.7177 18.6261 54.2567 15.0871 58.608 15.0871C62.9593 15.0871 66.4982 18.6261 66.4982 22.9774C66.4982 27.3287 62.9593 30.8676 58.608 30.8676Z" fill="#D62966"/>
<path d="M54.5261 22.9773C54.5261 28.3495 62.6887 28.3495 62.6887 22.9773C62.6887 17.606 54.5261 17.6051 54.5261 22.9773Z" fill="#FFD08C"/>
<path d="M76.1721 12.4698L86.1918 19.9411V4.59863H76.1721V12.4698Z" fill="#FFD08C"/>
<path d="M117.124 50.103V64.2255H140.842L131.79 50.103H117.124Z" fill="#CCCCCC"/>
<path d="M144.326 68.0351H115.219C114.167 68.0351 113.314 67.1808 113.314 66.1304V48.1985C113.314 47.1471 114.168 46.2938 115.219 46.2938H132.831C133.478 46.2938 134.083 46.6243 134.434 47.1709L145.927 65.1037C146.738 66.3685 145.827 68.0351 144.326 68.0351ZM117.067 74.5692H129.419C131.926 74.5692 131.927 78.3786 129.419 78.3786H117.067C114.56 78.3786 114.562 74.5692 117.067 74.5692ZM132.392 96.6524C139.269 96.6524 145.205 100.761 147.874 106.652H152.962V94.2048H144.664C143.612 94.2048 142.759 93.3506 142.759 92.3001V79.5614C142.759 78.51 143.613 77.6567 144.664 77.6567H152.962V67.6227L136.639 42.1577H106.846V106.651H116.908C119.579 100.76 125.515 96.6514 132.392 96.6514V96.6524Z" fill="#37B3D2"/>
<path d="M146.57 81.4661V90.3944H152.962V81.4661H146.57Z" fill="#FFCC00"/>
<path d="M154.867 110.461H149.081C149.48 112.555 149.479 114.731 149.08 116.824H158.737V110.463L154.868 110.461H154.867Z" fill="#A1A1A1"/>
<path d="M145.568 113.641C145.568 106.376 139.657 100.464 132.391 100.464C125.125 100.464 119.213 106.375 119.213 113.641C119.213 120.908 125.124 126.819 132.391 126.819C139.656 126.819 145.568 120.908 145.568 113.641ZM141.25 113.641C141.25 118.525 137.275 122.501 132.392 122.501C127.508 122.501 123.533 118.526 123.533 113.641C123.533 108.758 127.508 104.783 132.392 104.783C137.275 104.783 141.25 108.758 141.25 113.641Z" fill="#737373"/>
<path d="M137.441 113.64C137.441 106.993 127.342 106.994 127.342 113.64C127.342 120.286 137.441 120.285 137.441 113.64Z" fill="#E9F1FF"/>
<path d="M115.404 113.639C115.404 112.553 115.506 111.491 115.702 110.46H85.9778C86.3758 112.554 86.3758 114.73 85.9768 116.823H115.703C115.506 115.792 115.404 114.727 115.404 113.639Z" fill="#A1A1A1"/>
<path d="M103.035 106.652V85.7573H14.0948L7.67114 106.65H13.3567C19.3794 93.3619 38.2989 93.3628 44.3196 106.652H53.806C59.8268 93.3628 78.7492 93.3628 84.7709 106.652H103.035Z" fill="#737373"/>
<path d="M74.3399 113.639C74.3399 106.995 64.2393 106.993 64.2393 113.639C64.2393 120.287 74.3399 120.285 74.3399 113.639Z" fill="#E9F1FF"/>
<path d="M69.2895 104.783C74.1751 104.783 78.1493 108.758 78.1493 113.641C78.1493 118.525 74.1751 122.501 69.2895 122.501C64.4039 122.501 60.4307 118.526 60.4307 113.641C60.4307 108.758 64.4049 104.783 69.2895 104.783ZM69.2895 126.819C76.556 126.819 82.4653 120.908 82.4653 113.641C82.4653 106.376 76.555 100.464 69.2895 100.464C62.0221 100.464 56.1108 106.375 56.1108 113.641C56.1108 120.908 62.0221 126.819 69.2895 126.819Z" fill="#737373"/>
<path d="M52.3016 113.639C52.3016 112.553 52.4035 111.491 52.5997 110.46H45.5256C45.9237 112.554 45.9237 114.73 45.5247 116.823H52.6007C52.4045 115.792 52.3016 114.727 52.3016 113.639Z" fill="#A1A1A1"/>
<path d="M42.0161 113.641C42.0161 106.376 36.1048 100.464 28.8384 100.464C21.5729 100.464 15.6606 106.375 15.6606 113.641C15.6606 120.908 21.5719 126.819 28.8384 126.819C36.1048 126.819 42.0161 120.908 42.0161 113.641ZM37.6991 113.641C37.6991 118.525 33.7259 122.501 28.8403 122.501C23.9547 122.501 19.9815 118.526 19.9815 113.641C19.9815 108.758 23.9557 104.783 28.8403 104.783C33.7259 104.783 37.6991 108.758 37.6991 113.641Z" fill="#737373"/>
<path d="M33.8897 113.639C33.8897 106.994 23.7891 106.994 23.7891 113.639C23.7891 120.286 33.8897 120.285 33.8897 113.639Z" fill="#E9F1FF"/>
<path d="M12.1503 116.82C11.7522 114.724 11.7522 112.555 12.1503 110.459H3.84668V116.82H12.1503Z" fill="#A1A1A1"/>
</svg>
