<svg width="201" height="115" viewBox="0 0 201 115" fill="none" xmlns="http://www.w3.org/2000/svg">
<path d="M196.759 102.391H181.221C178.121 102.391 178.124 97.6815 181.221 97.6815H196.233V89.8195H181.221C178.121 89.8195 178.124 85.1103 181.221 85.1103C203.066 85.1103 200.945 82.8746 200.943 98.2089C200.943 100.512 199.064 102.389 196.759 102.389V102.391ZM146.107 102.391H103.215C100.115 102.391 100.117 97.6815 103.215 97.6815H146.107C149.206 97.6815 149.207 102.391 146.107 102.391ZM68.1006 102.391H53.2101C50.1115 102.391 50.1115 97.6815 53.2101 97.6815H68.1006C71.1992 97.6815 71.2004 102.391 68.1006 102.391ZM18.096 102.391C-1.84269 102.391 0.0480529 104.453 0.0480529 89.2921C0.0480529 86.9869 1.92349 85.1079 4.22982 85.1079L18.0937 85.1091C21.1923 85.1091 21.1923 89.8171 18.0937 89.8171H4.75607V97.6791H18.0937C21.1947 97.6791 21.19 102.391 18.096 102.391ZM146.106 89.8195H103.214C100.114 89.8195 100.116 85.1103 103.214 85.1103H146.106C149.205 85.1103 149.206 89.8195 146.106 89.8195ZM68.0994 89.8195H53.209C50.1103 89.8195 50.1103 85.1103 53.209 85.1103H68.0994C71.1981 85.1103 71.1992 89.8195 68.0994 89.8195Z" fill="#212121"/>
<path d="M191.449 89.8208H181.222C180.228 89.8208 179.341 89.1945 179.007 88.2597C173.875 73.9308 153.456 73.9308 148.323 88.2597C147.988 89.1945 147.102 89.8208 146.107 89.8208H129.73C128.43 89.8208 127.375 88.7648 127.375 87.4662V3.03038C127.375 1.73064 128.432 0.675781 129.73 0.675781H170.203C171.004 0.675781 171.751 1.0843 172.185 1.76007L193.431 34.9034C193.675 35.2825 193.806 35.724 193.806 36.1737V87.4662C193.806 88.7636 192.75 89.8208 191.45 89.8208H191.449ZM182.806 85.1104H189.094V36.8624L168.914 5.38497H132.084V85.1116L144.52 85.1104C151.939 68.693 175.39 68.6906 182.806 85.1104Z" fill="#212121"/>
<path d="M178.417 37.3721H142.435C141.135 37.3721 140.081 36.3172 140.081 35.0175V12.8478C140.081 11.548 141.137 10.4932 142.435 10.4932H164.207C165.008 10.4932 165.755 10.9017 166.188 11.5763L180.397 33.746C181.399 35.3094 180.275 37.3697 178.417 37.3697V37.3721ZM144.79 32.664H174.112L162.92 15.2035H144.79V32.664Z" fill="#212121"/>
<path d="M6.30262 89.8054C4.73093 89.8054 3.58306 88.2832 4.05163 86.7597L13.4359 56.2359C14.2094 53.7224 18.5995 54.5736 23.2239 54.5736C26.3238 54.5736 26.3238 59.2816 23.2239 59.2816H17.4257L8.55244 88.1407C8.24163 89.152 7.30921 89.8043 6.30262 89.8043V89.8054Z" fill="#212121"/>
<path d="M163.664 114.75C152.085 114.75 142.664 105.328 142.664 93.7492C142.664 82.1705 152.085 72.7498 163.664 72.7498C175.243 72.7498 184.664 82.1717 184.664 93.7492C184.664 105.328 175.242 114.75 163.664 114.75ZM163.664 77.4601C154.683 77.4601 147.374 84.7676 147.374 93.7504C147.374 102.732 154.681 110.041 163.664 110.041C172.646 110.041 179.954 102.733 179.954 93.7504C179.954 84.7676 172.647 77.4601 163.664 77.4601Z" fill="#212121"/>
<path d="M85.6577 114.75C74.0789 114.75 64.6582 105.328 64.6582 93.7492C64.6582 82.1705 74.0778 72.7498 85.6577 72.7498C97.2364 72.7498 106.656 82.1717 106.656 93.7492C106.656 105.328 97.2352 114.75 85.6577 114.75ZM85.6577 77.4601C76.6737 77.4601 69.3662 84.7676 69.3662 93.7504C69.3662 102.732 76.6737 110.041 85.6577 110.041C94.6405 110.041 101.946 102.733 101.946 93.7504C101.946 84.7676 94.6393 77.4601 85.6577 77.4601Z" fill="#212121"/>
<path d="M35.6506 114.75C24.0719 114.75 14.6523 105.328 14.6523 93.7492C14.6523 82.1705 24.0719 72.7498 35.6506 72.7498C47.2305 72.7498 56.6489 82.1717 56.6489 93.7492C56.6489 105.328 47.2305 114.75 35.6506 114.75ZM35.6506 77.4601C26.669 77.4601 19.3604 84.7676 19.3604 93.7504C19.3604 102.732 26.6679 110.041 35.6506 110.041C44.6334 110.041 51.9409 102.733 51.9409 93.7504C51.9409 84.7676 44.6334 77.4601 35.6506 77.4601Z" fill="#212121"/>
<path d="M163.664 104.703C157.627 104.703 152.713 99.7889 152.713 93.7517C152.713 87.7145 157.627 82.7993 163.664 82.7993C169.701 82.7993 174.615 87.7133 174.615 93.7517C174.615 99.7889 169.701 104.703 163.664 104.703ZM163.664 87.5073C155.449 87.5073 155.449 99.9914 163.664 99.9914C171.879 99.9914 171.88 87.5073 163.664 87.5073Z" fill="#212121"/>
<path d="M85.6578 104.703C79.6182 104.703 74.7065 99.7889 74.7065 93.7517C74.7065 87.7145 79.6194 82.7993 85.6578 82.7993C91.6973 82.7993 96.6102 87.7133 96.6102 93.7517C96.6102 99.7889 91.6973 104.703 85.6578 104.703ZM85.6578 87.5073C77.4414 87.5073 77.4414 99.9914 85.6578 99.9914C93.8753 99.9914 93.8753 87.5073 85.6578 87.5073Z" fill="#212121"/>
<path d="M35.6534 104.703C29.6138 104.703 24.7021 99.7889 24.7021 93.7517C24.7021 87.7145 29.615 82.7993 35.6534 82.7993C41.6929 82.7993 46.6046 87.7133 46.6046 93.7517C46.6046 99.7889 41.6929 104.703 35.6534 104.703ZM35.6534 87.5073C27.4358 87.5073 27.4358 99.9914 35.6534 99.9914C43.8697 99.9914 43.8709 87.5073 35.6534 87.5073Z" fill="#212121"/>
<path d="M191.449 69.7243H178.835C177.535 69.7243 176.48 68.6683 176.48 67.3697V51.6222C176.48 50.3224 177.537 49.2676 178.835 49.2676H191.449C194.548 49.2676 194.546 53.9756 191.449 53.9756H181.191V65.0128H191.449C194.548 65.0128 194.546 69.7231 191.449 69.7231V69.7243Z" fill="#212121"/>
<path d="M159.99 50.1587H144.72C141.621 50.1587 141.623 45.4507 144.72 45.4507H159.99C163.09 45.4507 163.09 50.1587 159.99 50.1587Z" fill="#212121"/>
<path d="M94.2271 59.2829C68.6267 59.2829 43.0276 59.2829 17.4272 59.2829L9.48633 85.1093H16.5148C23.96 68.6836 47.3482 68.686 54.7911 85.1117H66.5182C73.9611 68.6836 97.3528 68.6836 104.797 85.1117H127.375V59.2817H94.2271V59.2829Z" fill="#737373"/>
<path d="M101.946 93.7505C101.946 84.7677 94.6393 77.4602 85.6577 77.4602C76.6737 77.4602 69.3662 84.7677 69.3662 93.7505C69.3662 102.732 76.6737 110.041 85.6577 110.041C94.6404 110.041 101.946 102.733 101.946 93.7505ZM85.6577 82.7981C91.6972 82.7981 96.6101 87.7121 96.6101 93.7505C96.6101 99.7877 91.6972 104.702 85.6577 104.702C79.6181 104.702 74.7064 99.7877 74.7064 93.7505C74.7064 87.7133 79.6193 82.7981 85.6577 82.7981Z" fill="#737373"/>
<path d="M91.901 93.7492C91.901 85.534 79.4146 85.5329 79.4146 93.7492C79.4146 101.966 91.901 101.963 91.901 93.7492Z" fill="#E9F1FF"/>
<path d="M35.6529 99.9914C43.8693 99.9914 43.8704 87.5073 35.6529 87.5073C27.4354 87.5073 27.4354 99.9914 35.6529 99.9914Z" fill="#E9F1FF"/>
<path d="M46.6042 93.7505C46.6042 99.7877 41.6925 104.702 35.653 104.702C29.6134 104.702 24.7018 99.7877 24.7018 93.7505C24.7018 87.7133 29.6146 82.7981 35.653 82.7981C41.6925 82.7981 46.6042 87.7121 46.6042 93.7505ZM35.6506 110.041C44.6334 110.041 51.9409 102.733 51.9409 93.7505C51.9409 84.7677 44.6334 77.4602 35.6506 77.4602C26.669 77.4602 19.3604 84.7677 19.3604 93.7505C19.3604 102.732 26.6678 110.041 35.6506 110.041Z" fill="#737373"/>
<path d="M15.0212 97.6791C14.5291 95.0914 14.5303 92.4048 15.0224 89.8171H4.75635V97.6791H15.0212Z" fill="#A1A1A1"/>
<path d="M106.287 89.8208C106.779 92.4085 106.778 95.0951 106.286 97.6828H143.033C142.541 95.0951 142.54 92.4085 143.033 89.8208H106.288H106.287Z" fill="#A1A1A1"/>
<path d="M147.374 93.7506C147.374 102.732 154.682 110.041 163.664 110.041C179.402 110.041 185.834 89.8879 173.351 80.6625C162.562 72.6887 147.374 80.4812 147.374 93.7517V93.7506ZM163.664 104.702C157.627 104.702 152.713 99.7877 152.713 93.7506C152.713 87.7134 157.627 82.7982 163.664 82.7982C169.701 82.7982 174.616 87.7122 174.616 93.7506C174.616 99.7877 169.701 104.702 163.664 104.702Z" fill="#737373"/>
<path d="M157.422 93.7492C157.422 101.964 169.906 101.964 169.906 93.7492C169.906 85.5329 157.422 85.534 157.422 93.7492Z" fill="#E9F1FF"/>
<path d="M181.191 65.0138H189.094V53.9778H181.191V65.0138Z" fill="#FFCC00"/>
<path d="M144.789 32.6641H174.11L162.92 15.2024L144.789 15.2036V32.6641Z" fill="#CCCCCC"/>
<path d="M178.417 37.3721H142.435C141.136 37.3721 140.081 36.3173 140.081 35.0175V12.8478C140.081 11.5481 141.137 10.4932 142.435 10.4932H164.207C165.008 10.4932 165.755 10.9017 166.188 11.5763L180.397 33.746C181.399 35.3095 180.275 37.3698 178.417 37.3698V37.3721ZM144.72 50.1587C141.621 50.1587 141.622 45.4507 144.72 45.4507H159.99C163.09 45.4507 163.09 50.1587 159.99 50.1587H144.72ZM163.664 72.7511C171.973 72.7511 179.444 77.6651 182.807 85.1104H189.095V69.7243H178.836C177.536 69.7243 176.482 68.6682 176.482 67.3697V51.6221C176.482 50.3224 177.538 49.2675 178.836 49.2675H189.095V36.86L168.915 5.38257H132.084V85.1092L144.521 85.108C147.881 77.671 155.344 72.7487 163.664 72.7487V72.7511Z" fill="#37B3D2"/>
<path d="M191.448 89.8208H184.295C184.788 92.4085 184.787 95.0951 184.295 97.6828H196.233V89.8208H191.449H191.448Z" fill="#A1A1A1"/>
<path d="M58.7281 59.2828H23.2267C21.9269 59.2828 20.8721 58.2279 20.8721 56.9282V38.932C20.8721 37.6323 21.9269 36.5774 23.2267 36.5774H58.7281C60.0278 36.5774 61.0827 37.6323 61.0827 38.932V56.9282C61.0827 58.2279 60.029 59.2828 58.7293 59.2828H58.7281ZM25.5801 54.5747H56.3735V41.2866H25.5801V54.5747Z" fill="#212121"/>
<path d="M94.2272 59.2828H58.7281C57.4284 59.2828 56.3735 58.2279 56.3735 56.9282V38.932C56.3735 37.6323 57.4284 36.5774 58.7281 36.5774H94.2272C95.5269 36.5774 96.5818 37.6323 96.5818 38.932V56.9282C96.5818 58.2279 95.5269 59.2828 94.2272 59.2828ZM61.0815 54.5747H91.8726V41.2866H61.0815V54.5747Z" fill="#212121"/>
<path d="M129.729 59.2828H94.2272C92.9274 59.2828 91.8726 58.2279 91.8726 56.9282V38.932C91.8726 37.6323 92.9274 36.5774 94.2272 36.5774H129.729C131.028 36.5774 132.083 37.6323 132.083 38.932V56.9282C132.086 58.2279 131.029 59.2828 129.729 59.2828ZM96.5818 54.5747H127.375V41.2866H96.5818V54.5747Z" fill="#212121"/>
<path d="M76.4771 41.2854H40.9757C39.676 41.2854 38.6211 40.2305 38.6211 38.9308V20.9322C38.6211 19.6325 39.676 18.5776 40.9757 18.5776H76.4771C77.7769 18.5776 78.8317 19.6325 78.8317 20.9322V38.9296C78.8317 40.2317 77.778 41.2854 76.4771 41.2854ZM43.3303 36.5773H74.1237V23.2892H43.3303V36.5773Z" fill="#212121"/>
<path d="M111.978 41.2854H76.4757C75.176 41.2854 74.1211 40.2305 74.1211 38.9308V20.9322C74.1211 19.6325 75.176 18.5776 76.4757 18.5776H111.978C113.278 18.5776 114.333 19.6325 114.333 20.9322V38.9296C114.333 40.2317 113.278 41.2854 111.978 41.2854ZM78.8303 36.5773H109.623V23.2892H78.8303V36.5773Z" fill="#212121"/>
<path d="M94.2272 23.2869H58.7281C57.4284 23.2869 56.3735 22.2321 56.3735 20.9323V2.93614C56.3735 1.6364 57.4284 0.581543 58.7281 0.581543H94.2272C95.5269 0.581543 96.5818 1.6364 96.5818 2.93614V20.9323C96.5818 22.2344 95.5269 23.2869 94.2272 23.2869ZM61.0815 18.5777H91.8726V5.28956H61.0815V18.5777Z" fill="#212121"/>
<path d="M111.979 41.2854H96.582V54.5736H127.374V41.2854H111.979Z" fill="#D7A199"/>
<path d="M94.2273 36.5774H109.623V23.2892L78.8306 23.2869V36.5774H94.2273Z" fill="#D7A199"/>
<path d="M76.4771 18.5787H91.8726V5.29053H61.0815V18.5787H76.4771Z" fill="#D7A199"/>
<path d="M74.1225 23.2893H43.3291V36.5775H74.1225V23.2893Z" fill="#D7A199" stroke="#D7A199" stroke-width="3" stroke-miterlimit="2.613"/>
<path d="M76.4771 41.2854H61.0815V54.5736H91.8726V41.2854H76.4771Z" fill="#D7A199"/>
<path d="M56.374 54.5736V41.2854C46.1091 41.2854 35.8454 41.2854 25.5806 41.2854V54.5736H56.374Z" fill="#D7A199"/>
<path d="M65.0252 89.8208H56.2803C56.7724 92.4097 56.7712 95.0939 56.2803 97.6828H65.0264C64.5343 95.0951 64.5331 92.4085 65.0252 89.8208Z" fill="#A1A1A1"/>
</svg>
