<svg width="107" height="143" viewBox="0 0 107 143" fill="none" xmlns="http://www.w3.org/2000/svg">
<path d="M69.659 98.4708C69.2033 98.4708 68.7493 98.2839 68.4204 97.9192C64.7857 93.8888 64.2515 88.4204 64.4435 84.5395C64.5528 82.3202 67.8855 82.5214 67.7778 84.7047C67.2628 95.1157 73.2554 95.8043 70.7774 98.0402C70.4586 98.3273 70.058 98.47 69.6582 98.47L69.659 98.4708Z" fill="#212121"/>
<path d="M36.7905 98.3851C35.3592 98.3851 34.5805 96.675 35.5528 95.5975C40.9302 89.635 36.7814 83.0833 40.3118 82.9364C41.2424 82.8997 42.0119 83.61 42.0511 84.5314C42.218 88.3814 41.6555 93.8164 38.0308 97.8343C37.7019 98.1982 37.2479 98.3851 36.7905 98.3851Z" fill="#212121"/>
<path d="M45.6124 54.2248C44.1276 54.2248 43.8581 52.2242 40.7842 52.2242C37.3489 52.2242 36.6002 55.5576 34.7766 53.7357C32.0925 51.0541 41.2148 45.7918 46.7934 51.3745C47.8475 52.4287 47.0863 54.2248 45.6124 54.2248Z" fill="#212121"/>
<path d="M40.7862 61.6387C38.5477 61.6387 39.1169 58.6049 39.1169 56.0251C39.1169 53.8276 42.4546 53.8276 42.4546 56.0251C42.4546 58.6066 43.0246 61.6387 40.7853 61.6387H40.7862Z" fill="#212121"/>
<path d="M65.6667 61.7487C63.3773 61.7487 63.9975 58.4937 63.9975 55.5709C63.9975 53.3742 67.3359 53.3742 67.3359 55.5709C67.3359 58.4945 67.9569 61.7487 65.6667 61.7487Z" fill="#212121"/>
<path d="M70.4931 54.225C70.0666 54.225 69.6384 54.0614 69.3121 53.7359C67.304 51.7245 64.0282 51.7228 62.0167 53.7359C60.4635 55.2908 58.1007 52.9288 59.6556 51.3756C65.1607 45.8763 74.4158 50.9925 71.6724 53.7359C71.3469 54.0622 70.9196 54.225 70.4931 54.225Z" fill="#212121"/>
<path d="M53.2251 77.4782C48.9169 77.4782 42.6756 74.0521 45.01 71.7202C45.6627 71.0675 46.7185 71.0675 47.3695 71.7202C50.5986 74.9493 55.8508 74.9493 59.08 71.7202C60.6348 70.1653 62.996 72.5273 61.4411 74.0813C59.1751 76.3456 56.1997 77.4782 53.2243 77.4782H53.2251Z" fill="#212121"/>
<path d="M52.9003 91.3537C45.7385 91.3537 42.6504 88.1855 37.4516 84.6384C31.1027 80.3042 27.5188 77.858 27.3077 67.457C17.5611 61.9552 17.945 54.7417 24.7104 49.5003C24.7104 46.3521 24.0569 42.9419 26.3796 42.9419C27.301 42.9419 28.0488 43.6897 28.0488 44.6111V50.3524C28.0488 52.3881 22.9318 53.569 23.1413 58.025C23.2815 60.9846 26.8086 63.4425 29.7423 64.9816C30.2914 65.2703 30.6353 65.8395 30.6353 66.4588C30.6353 78.3537 34.9711 78.4631 44.0467 85.2009C49.3882 89.1687 57.2611 88.9308 63.1911 84.62C71.7617 78.3888 75.8104 78.0349 75.8104 66.458C75.8104 65.8379 76.1551 65.2687 76.7043 64.9807C79.638 63.44 83.1659 60.9838 83.3045 58.0242C83.5139 53.5682 78.3978 52.3864 78.3978 50.3516V44.6103C78.3978 42.4136 81.7354 42.4136 81.7354 44.6103V49.5003C88.5024 54.7475 88.8797 61.9586 79.1372 67.4579C78.8827 79.9378 73.4702 81.2741 65.1524 87.3233C61.4668 90.0041 57.1293 91.3529 52.9003 91.3529V91.3537Z" fill="#212121"/>
<path d="M83.4373 46.2789H23.0138C21.2803 46.2789 19.8706 44.8693 19.8706 43.1349V34.288C19.8706 32.5537 21.2794 31.144 23.0138 31.144L83.4373 31.1449C85.1716 31.1449 86.5822 32.5545 86.5822 34.288V43.1349C86.5822 44.8684 85.1716 46.2773 83.4373 46.2773V46.2789ZM23.2091 42.9413H83.2437V34.4842H23.2091V42.9413Z" fill="#212121"/>
<path d="M79.164 34.4852C77.2811 34.4852 77.4948 32.5139 77.4948 31.5265C77.4948 20.3978 69.611 10.5059 58.7477 8.00458C56.6086 7.51132 57.353 4.25633 59.4972 4.75125C71.8603 7.59812 80.8341 18.8587 80.8341 31.5257C80.8341 32.5139 81.0477 34.4852 79.164 34.4852ZM27.2869 34.4852C25.404 34.4852 25.6177 32.5139 25.6177 31.5265C25.6177 18.8587 34.5906 7.59896 46.9537 4.75125C49.0912 4.25633 49.8473 7.51049 47.7032 8.00458C36.8399 10.5059 28.957 20.3978 28.957 31.5265C28.957 32.5139 29.1706 34.4852 27.2869 34.4852Z" fill="#212121"/>
<path d="M69.031 34.4852C68.1096 34.4852 67.3618 33.7374 67.3618 32.816V11.0626C67.3618 8.86586 70.6994 8.86586 70.6994 11.0626V32.816C70.7011 33.7374 69.9525 34.4843 69.0302 34.4843L69.031 34.4852Z" fill="#212121"/>
<path d="M37.4197 34.4848C36.4983 34.4848 35.7505 33.737 35.7505 32.8156V11.0622C35.7505 8.86468 39.0881 8.86468 39.0881 11.0622V32.8156C39.0881 33.737 38.342 34.484 37.4189 34.484L37.4197 34.4848Z" fill="#212121"/>
<path d="M68.2408 125.452H38.2105C36.0138 125.452 36.0138 122.113 38.2105 122.113H68.2408C70.4375 122.113 70.4375 125.452 68.2408 125.452Z" fill="#212121"/>
<path d="M68.2408 133.996H38.2105C36.0138 133.996 36.0138 130.659 38.2105 130.659H68.2408C70.4375 130.659 70.4375 133.996 68.2408 133.996Z" fill="#212121"/>
<path d="M104.697 142.42H1.66923C0.747814 142.42 0 141.671 0 140.751V118.961C0 105.824 10.6881 95.1348 23.8266 95.1348H36.703C37.1153 95.1348 37.5142 95.2892 37.8205 95.5646C47.7675 104.528 58.5999 104.525 68.546 95.5646C68.8532 95.2883 69.2496 95.1348 69.6636 95.1348H82.54C95.6777 95.1348 106.367 105.825 106.367 118.961V140.751C106.367 141.671 105.619 142.42 104.697 142.42ZM3.33762 139.081H103.028V118.961C103.028 107.665 93.8373 98.4741 82.5408 98.4741H70.2971C64.8345 103.24 59.079 105.656 53.1833 105.656C47.2876 105.656 41.5312 103.24 36.0704 98.4741H23.8266C12.5284 98.4741 3.33762 107.665 3.33762 118.961V139.081Z" fill="#212121"/>
<path d="M82.9663 117.029C82.0449 117.029 81.2971 116.28 81.2971 115.36V96.8052C81.2971 94.6077 84.6347 94.6094 84.6347 96.8052V115.36C84.6347 116.28 83.8869 117.029 82.9655 117.029H82.9663ZM75.9739 117.029C75.0525 117.029 74.3047 116.28 74.3047 115.36V96.8052C74.3047 94.6077 77.6431 94.6094 77.6431 96.8052V115.36C77.644 116.28 76.8953 117.029 75.9739 117.029Z" fill="#212121"/>
<path d="M30.4771 117.029C29.5556 117.029 28.8078 116.28 28.8078 115.36V96.8052C28.8078 94.6077 32.1463 94.6094 32.1463 96.8052V115.36C32.1463 116.28 31.3985 117.029 30.4771 117.029ZM23.4847 117.029C22.5632 117.029 21.8154 116.28 21.8154 115.36V96.8052C21.8154 94.6077 25.1531 94.6094 25.1531 96.8052V115.36C25.1531 116.28 24.4061 117.029 23.4838 117.029H23.4847Z" fill="#212121"/>
<path d="M86.8759 142.42C85.9545 142.42 85.2067 141.672 85.2067 140.751V119.266C85.2067 118.032 84.2035 117.029 82.9691 117.029H23.482C22.2492 117.029 21.2444 118.031 21.2444 119.266V140.751C21.2444 142.949 17.9067 142.947 17.9067 140.751V119.266C17.9067 116.192 20.4081 113.689 23.4828 113.689H82.9699C86.0446 113.689 88.5477 116.191 88.5477 119.266V140.751C88.546 141.672 87.799 142.42 86.8768 142.42H86.8759Z" fill="#212121"/>
<path d="M47.3702 71.72C50.5993 74.9491 55.8515 74.9491 59.0806 71.72C60.6355 70.1651 62.9966 72.5271 61.4418 74.0811C56.9115 78.6097 49.5402 78.6114 45.0099 74.0811C43.455 72.5262 45.8178 70.1651 47.3693 71.72H47.3702ZM44.0476 85.2007C49.3891 89.1685 57.262 88.9306 63.1919 84.6198C71.7643 78.3877 75.8113 78.033 75.8113 66.4578C75.8113 65.8376 76.156 65.2684 76.7052 64.9805C79.6389 63.4398 83.1668 60.9835 83.3053 58.024C83.4664 54.5979 79.2023 51.7794 79.1598 51.7519C77.9846 50.989 78.3986 48.5711 78.3986 46.2793H28.0497C28.0497 48.5878 28.4653 50.9899 27.2843 51.7535C27.2451 51.7794 22.9811 54.5979 23.1421 58.024C23.2824 60.9835 26.8094 63.4415 29.7431 64.9805C30.2923 65.2693 30.6361 65.8385 30.6361 66.4578C30.6361 75.9423 33.0039 77.559 39.3328 81.8781L44.0467 85.1999L44.0476 85.2007ZM63.9973 60.0805V55.5719C63.9973 53.3752 67.3358 53.3752 67.3358 55.5719V60.0805C67.3358 62.278 63.9973 62.2772 63.9973 60.0805ZM70.4931 54.2248C70.0667 54.2248 69.6385 54.0612 69.3122 53.7357C67.3041 51.7243 64.0282 51.7227 62.0168 53.7357C60.4628 55.2906 58.1008 52.9295 59.6557 51.3755C65.1591 45.8762 74.4158 50.9907 71.6725 53.7357C71.347 54.0621 70.9196 54.2248 70.4931 54.2248ZM45.6125 54.2248C44.1277 54.2248 43.8581 52.2243 40.7842 52.2243C37.354 52.2243 36.5995 55.5569 34.7767 53.7357C32.0917 51.0541 41.2157 45.7919 46.7934 51.3746C47.8476 52.4287 47.0864 54.2248 45.6125 54.2248ZM40.7851 61.6387C38.5466 61.6387 39.1158 58.6049 39.1158 56.0251C39.1158 53.8284 42.4535 53.8275 42.4535 56.0251C42.4535 58.6066 43.0235 61.6387 40.7842 61.6387H40.7851Z" fill="#FFC9B9"/>
<path d="M64.4789 87.7938C57.6726 92.3533 48.5978 92.7164 41.9902 87.8322C41.7498 90.6899 40.9628 93.8731 39.0215 96.5998C48.239 104.186 58.1458 104.181 67.3616 96.5856C65.4512 93.8473 64.6951 90.6557 64.4797 87.793L64.4789 87.7938Z" fill="#F7BCA8"/>
<path d="M70.2961 98.4746C51.9212 114.506 37.0784 98.8527 36.0694 98.4746H32.145V113.69H74.3047V98.4746H70.2952H70.2961Z" fill="#78B4BE"/>
<path d="M77.6431 98.4746V113.69H81.2978V98.4746H77.6431Z" fill="#E6E6E6"/>
<path d="M84.6357 98.5809V113.944C86.8992 114.654 88.5459 116.77 88.5459 119.265V139.081H103.028V118.961C103.028 108.372 94.9524 99.6325 84.6357 98.5801V98.5809Z" fill="#78B4BE"/>
<path d="M82.9689 117.03H23.4817C22.249 117.03 21.2441 118.032 21.2441 119.267V139.082H85.2073V119.267C85.2073 118.033 84.2041 117.03 82.9697 117.03H82.9689ZM38.2102 130.659H68.2404C70.4371 130.659 70.4371 133.997 68.2404 133.997H38.2102C36.0135 133.997 36.0135 130.659 38.2102 130.659ZM68.2404 122.113C70.4371 122.113 70.4371 125.452 68.2404 125.452H38.2102C36.0135 125.452 36.0135 122.113 38.2102 122.113H68.2404Z" fill="#E6E6E6"/>
<path d="M28.8076 113.69V98.4746H25.1528V113.69H28.8076Z" fill="#E6E6E6"/>
<path d="M21.8154 113.944V98.5728C11.4579 99.586 3.33789 108.344 3.33789 118.962V139.082H17.9069V119.266C17.9069 116.772 19.5528 114.655 21.8163 113.945L21.8154 113.944Z" fill="#78B4BE"/>
<path d="M48.9976 31.1462H57.4539V5.35581C57.4539 2.68254 53.9134 3.33938 51.0148 3.33938C48.8707 3.33938 49.0134 5.43676 48.9976 6.42745V31.1454V31.1462Z" fill="#FF8600"/>
<path d="M60.7925 8.57275V31.1466H67.3617V11.9196C65.3804 10.4899 63.172 9.35061 60.7925 8.57275Z" fill="#FFB800"/>
<path d="M70.6992 14.8211V31.1462H77.4921C77.392 24.9358 74.8414 19.1353 70.6992 14.8203V14.8211Z" fill="#FFB800"/>
<path d="M45.6594 31.1457V8.57275C43.28 9.35061 41.0707 10.4907 39.0894 11.9204V31.1457H45.6594Z" fill="#FFB800"/>
<path d="M35.7517 31.146V14.8218C31.6103 19.1359 29.0606 24.9365 28.9604 31.1452H35.7517V31.146Z" fill="#FFB800" stroke="#FFB800" stroke-width="3" stroke-miterlimit="2.613"/>
<path d="M68.9657 34.4844H23.208V42.9415H83.2426V34.4844H68.9657Z" fill="#FFCC00"/>
<path d="M59.1223 34.4854C58.2009 34.4854 57.4531 33.7376 57.4531 32.8162V5.35572C57.4531 2.68328 53.9135 3.33929 51.0141 3.33929C49.9032 3.33929 48.9968 4.24401 48.9968 5.35572V32.8145C48.9968 35.0121 45.6592 35.0121 45.6592 32.8145V5.35488C45.6592 2.40285 48.062 0 51.0141 0H55.4367C58.3904 0 60.7924 2.40285 60.7924 5.35488V32.8137C60.7924 33.7368 60.0446 34.4838 59.1223 34.4838V34.4854Z" fill="#212121"/>
</svg>
