<svg width="27" height="27" viewBox="0 0 27 27" fill="none" xmlns="http://www.w3.org/2000/svg">
<path d="M13.5 27C20.9558 27 27 20.9558 27 13.5C27 6.04416 20.9558 0 13.5 0C6.04416 0 0 6.04416 0 13.5C0 20.9558 6.04416 27 13.5 27Z" fill="#039BE5"/>
<path d="M6.17738 13.2075L19.1936 8.18888C19.7978 7.97063 20.3254 8.33625 20.1296 9.24975L20.1308 9.24863L17.9145 19.6898C17.7503 20.43 17.3104 20.61 16.695 20.2613L13.32 17.7739L11.6921 19.3421C11.5121 19.5221 11.3603 19.674 11.0115 19.674L11.2511 16.2394L17.5061 10.5885C17.7784 10.3489 17.4454 10.2139 17.0865 10.4524L9.35663 15.3191L6.02438 14.2796C5.30101 14.0501 5.28526 13.5563 6.17738 13.2075V13.2075Z" fill="white"/>
</svg>
