<svg width="100" height="105" viewBox="0 0 100 105" fill="none" xmlns="http://www.w3.org/2000/svg">
<path d="M50.0001 11.4144C49.3296 11.4144 48.7854 10.8702 48.7854 10.1997V1.7436C48.7854 0.144466 51.2148 0.144466 51.2148 1.7436V10.1997C51.2148 10.8702 50.6712 11.4144 50.0001 11.4144Z" fill="#212121"/>
<path d="M70.1718 16.8198C69.2511 16.8198 68.6492 15.8158 69.1211 14.9977L73.3495 7.67437C74.1481 6.29145 76.2526 7.5031 75.4527 8.88906L71.2244 16.2124C70.9997 16.6023 70.5909 16.8198 70.1718 16.8198V16.8198Z" fill="#212121"/>
<path d="M84.9407 31.5867C83.7072 31.5867 83.2589 29.9396 84.3321 29.3207L91.6555 25.093C93.039 24.2931 94.2549 26.3975 92.8702 27.1962C91.783 27.823 85.6495 31.5873 84.9407 31.5873V31.5867Z" fill="#212121"/>
<path d="M98.8009 51.7591H90.346C88.7469 51.7591 88.7475 49.3303 90.346 49.3303H98.8009C100.399 49.3303 100.4 51.7591 98.8009 51.7591Z" fill="#212121"/>
<path d="M92.2622 76.1598C91.5534 76.1598 85.4192 72.3954 84.3327 71.7686C82.9467 70.9694 84.1651 68.8668 85.5474 69.6654L92.8708 73.8937C93.9464 74.5138 93.4939 76.1598 92.2622 76.1598V76.1598Z" fill="#212121"/>
<path d="M7.73923 76.1598C6.50632 76.1598 6.05568 74.5133 7.13007 73.8926L14.4522 69.6642C15.837 68.8644 17.0504 70.9682 15.6669 71.7675C14.5828 72.3936 8.44679 76.1592 7.73923 76.1592V76.1598Z" fill="#212121"/>
<path d="M9.65542 51.7591H1.19935C-0.399785 51.7591 -0.399785 49.3303 1.19935 49.3303H9.65542C11.2539 49.3303 11.2546 51.7591 9.65542 51.7591Z" fill="#212121"/>
<path d="M15.059 31.5868C14.3508 31.5868 8.21541 27.8224 7.13009 27.1956C5.74655 26.397 6.95881 24.2925 8.34478 25.0924L15.6669 29.3201C16.7395 29.939 16.2937 31.5861 15.059 31.5861V31.5868Z" fill="#212121"/>
<path d="M29.8284 16.8198C29.4081 16.8198 28.9999 16.6023 28.7746 16.2124L24.5463 8.88905C23.747 7.50309 25.8515 6.29022 26.6495 7.67436L30.8778 14.9977C31.3479 15.8134 30.7503 16.8198 29.8284 16.8198Z" fill="#212121"/>
<path d="M59.2403 104.167H40.6992C40.3081 104.167 39.9395 103.977 39.7117 103.659C38.9325 102.568 34.4715 96.7785 34.4715 95.9465V85.437C34.4715 62.5498 21.0031 70.342 21.0031 48.8359C21.0031 32.847 34.0112 19.8389 50.0001 19.8389C65.9891 19.8389 78.9972 32.847 78.9972 48.8359C78.9972 70.3402 65.5293 62.6391 65.5293 85.1959V95.9465C65.5293 96.7828 61.0125 102.576 60.2248 103.665C59.9964 103.98 59.6302 104.167 59.2409 104.167L59.2403 104.167ZM41.323 101.737H58.6202L63.0993 95.5535V85.1965C63.0993 61.5325 76.5678 69.0708 76.5678 48.8365C76.5678 34.1868 64.6499 22.2689 50.0007 22.2689C35.3516 22.2689 23.4318 34.1874 23.4318 48.8365C23.4318 69.0648 36.9003 61.4578 36.9003 85.4376V95.5578L41.323 101.737V101.737Z" fill="#212121"/>
<path d="M64.3147 89.3264H35.6863C34.0877 89.3264 34.0877 86.8976 35.6863 86.8976H64.3147C65.9132 86.8976 65.9138 89.3264 64.3147 89.3264ZM64.5819 81.2475H35.4002C33.8017 81.2475 33.8017 78.8187 35.4002 78.8187H64.5819C66.181 78.8187 66.1798 81.2475 64.5819 81.2475Z" fill="#212121"/>
<path d="M64.1348 97.4053H35.8581C34.2595 97.4053 34.2595 94.9765 35.8581 94.9765H64.1348C65.7334 94.9765 65.7334 97.4053 64.1348 97.4053ZM64.3146 89.3264H35.6862C34.0877 89.3264 34.0877 86.8976 35.6862 86.8976H64.3146C65.9131 86.8976 65.9138 89.3264 64.3146 89.3264Z" fill="#212121"/>
<path d="M53.2112 68.9135H46.7897C45.063 68.9135 45.575 66.2418 45.575 63.697C44.978 63.496 44.3949 63.2543 43.8301 62.9737C42.7685 64.0353 41.0217 66.161 40.1405 66.161C39.818 66.161 39.5095 66.0329 39.2823 65.8045C33.0425 59.5604 33.1068 61.1808 37.5726 56.7156C37.2914 56.1502 37.0497 55.5677 36.8493 54.9713C34.3033 54.9713 31.6316 55.4833 31.6316 53.7566V47.3358C31.6316 45.6085 34.3021 46.1211 36.8481 46.1217C37.0491 45.5247 37.2908 44.9416 37.572 44.3768C33.1105 39.9153 33.0394 41.532 39.2823 35.2885C40.5037 34.0671 42.0251 36.3143 43.8295 38.1187C44.3937 37.8381 44.9768 37.5964 45.5744 37.396C45.5744 34.8494 45.0618 32.1789 46.7891 32.1789L53.2106 32.1783C54.9378 32.1783 54.4252 34.8494 54.4252 37.396C55.0217 37.5964 55.6041 37.8387 56.1695 38.1193C60.6268 33.6614 59.0295 33.6068 65.2585 39.8296C66.4804 41.0504 64.2314 42.5742 62.4282 44.378C62.7094 44.9422 62.9505 45.5259 63.151 46.1223C65.6976 46.1223 68.3681 45.6091 68.3681 47.3364V53.7579C68.3681 55.4851 65.6963 54.9725 63.1516 54.9725C62.9505 55.5677 62.7088 56.1508 62.427 56.7168C66.8795 61.1675 66.9718 59.5647 60.7173 65.8064C60.2424 66.2801 59.4735 66.2807 58.9985 65.8064L56.1689 62.9749C55.6041 63.2561 55.021 63.4978 54.4246 63.6989C54.4246 66.2515 54.9372 68.9135 53.2124 68.9135H53.2112ZM48.0044 66.4835H51.9959C51.9959 59.9352 51.6199 62.8644 55.7754 60.4265C56.9718 59.7244 58.209 61.5768 59.8592 63.2282L62.6827 60.4046C58.0699 55.7931 59.8373 58.1708 61.072 53.4481C61.4231 52.1065 63.6053 52.5407 65.9387 52.5407V48.5481C59.4061 48.5481 62.3147 48.9307 59.8804 44.7679C59.1808 43.5709 61.0319 42.3343 62.6821 40.6842L59.8585 37.8612C55.2482 42.4716 57.6253 40.7078 52.902 39.4707C51.5604 39.119 51.9946 36.9405 51.9946 34.604H48.0032C48.0032 41.1524 48.3803 38.2232 44.2249 40.6623C43.029 41.3644 41.7906 39.5114 40.1405 37.8612L37.3176 40.6842C41.9267 45.2945 40.1642 42.9174 38.927 47.6407C38.5754 48.9829 36.3968 48.5481 34.061 48.5481V52.5401C40.6009 52.5401 37.6832 52.1605 40.1186 56.319C40.8201 57.5161 38.9683 58.7527 37.3176 60.404L40.1405 63.2276C44.7508 58.6154 42.3731 60.3828 47.097 61.6157C48.4393 61.9661 48.0044 64.1507 48.0044 66.4835H48.0056H48.0044Z" fill="#212121"/>
<path d="M50.0001 58.1611C45.8003 58.1611 42.384 54.7448 42.384 50.545C42.384 46.3458 45.8003 42.9289 50.0001 42.9289C54.1993 42.9289 57.6168 46.3458 57.6168 50.545C57.6168 54.7448 54.1993 58.1611 50.0001 58.1611ZM50.0001 45.3577C43.1742 45.3577 43.1724 55.7305 50.0001 55.7305C56.8273 55.7305 56.8261 45.3577 50.0001 45.3577Z" fill="#212121"/>
<path d="M54.4234 67.7007C54.4264 68.3694 53.8811 68.9135 53.2112 68.9135H46.7897C46.1192 68.9135 45.575 68.3688 45.575 67.6989V63.6971C44.978 63.496 44.3949 63.2543 43.8301 62.9737L40.9987 65.8046C40.5243 66.2789 39.756 66.2795 39.2817 65.8046L34.7412 61.264C34.2662 60.7891 34.2662 60.0202 34.7412 59.5459L37.5714 56.7156C37.2902 56.1502 37.0485 55.5678 36.8481 54.9713H32.8451C32.1746 54.9713 31.6304 54.4266 31.6304 53.7567V47.3358C31.6304 46.6653 32.1746 46.1211 32.8451 46.1211H36.8469C37.0479 45.5241 37.2896 44.941 37.5708 44.3762L34.7406 41.546C34.2656 41.0723 34.2656 40.3027 34.7406 39.829L39.2811 35.2879C39.756 34.813 40.5243 34.813 40.9987 35.2879L43.8289 38.1181C44.3931 37.8375 44.9762 37.5958 45.5738 37.3954V33.3924C45.5738 32.7219 46.118 32.1777 46.7885 32.1777L53.2099 32.1771C53.8804 32.1771 54.4246 32.7213 54.4246 33.3918V37.3948C55.021 37.5952 55.6035 37.8375 56.1689 38.1181L58.9991 35.2879C59.4553 34.8324 60.2612 34.8324 60.7173 35.2879L65.2578 39.8284C65.7328 40.3027 65.7328 41.0716 65.2578 41.546L62.4276 44.3774C62.7088 44.9417 62.9499 45.5253 63.1504 46.1217H67.1534C67.8239 46.1217 68.3681 46.6659 68.3681 47.3364V53.7579C68.3681 54.4284 67.8233 54.9726 67.1534 54.9726L63.151 54.9732C62.9499 55.5684 62.7082 56.1514 62.4264 56.7175L65.2578 59.5477C65.7328 60.0226 65.7328 60.7915 65.2578 61.2659L60.7173 65.8064C60.2424 66.2807 59.4735 66.2807 58.9985 65.8064L56.1689 62.9749C55.6041 63.2561 55.021 63.4979 54.4246 63.6989V67.7007H54.4234ZM36.4739 78.8181H63.5044C65.7832 62.6725 76.5678 67.0265 76.5678 48.8366C76.5678 34.1868 64.6499 22.2689 50.0007 22.2689C35.3516 22.2689 23.4318 34.1874 23.4318 48.8366C23.4318 66.964 34.1502 62.6415 36.4739 78.8187V78.8181Z" fill="#FFA600"/>
<path d="M55.7748 60.4265C56.2497 60.1471 56.8558 60.2242 57.2476 60.6154L59.8585 63.2282L62.6821 60.4046C58.0687 55.7924 59.8367 58.1702 61.0714 53.4481C61.2111 52.9136 61.6939 52.5407 62.2472 52.5407H65.9387V48.548C59.4055 48.548 62.3147 48.9307 59.8804 44.7679C59.6022 44.2912 59.6794 43.6868 60.0699 43.2963L62.6821 40.6841L59.8585 37.8612C55.2482 42.4716 57.6253 40.7084 52.902 39.4707C52.3676 39.331 51.9946 38.8481 51.9946 38.2961V34.6046H48.0032C48.0032 41.1536 48.3797 38.2232 44.2249 40.6629C43.7493 40.9429 43.142 40.8645 42.7521 40.4734L40.1405 37.8618L37.3176 40.6847C41.9267 45.2951 40.1636 42.9186 38.927 47.6413C38.7873 48.1757 38.3045 48.5486 37.7518 48.5486H34.0604V52.5407C40.6009 52.5407 37.682 52.1611 40.118 56.3196C40.3974 56.7964 40.3191 57.4007 39.9291 57.7924L37.3176 60.4046L40.1405 63.2282C44.7515 58.6154 42.3731 60.384 47.097 61.6163C47.6315 61.756 48.0044 62.2388 48.0044 62.7915L48.005 66.4835H51.9965C51.9965 59.943 51.6175 62.8601 55.776 60.4265H55.7748ZM57.6168 50.545C57.6168 54.7448 54.1993 58.1611 50.0001 58.1611C45.8003 58.1611 42.384 54.7448 42.384 50.545C42.384 46.3458 45.8003 42.9289 50.0001 42.9289C54.1993 42.9289 57.6168 46.3458 57.6168 50.545Z" fill="#5C6365"/>
<path d="M50.0001 55.7299C52.8601 55.7299 55.1868 53.4032 55.1868 50.5438C55.1868 47.685 52.8601 45.3571 50.0001 45.3571C47.1401 45.3571 44.8127 47.6838 44.8127 50.5438C44.8127 53.4038 47.1395 55.7299 50.0001 55.7299Z" fill="#FFA600"/>
<path d="M63.2426 81.2469H36.743L36.9009 86.8976H63.0999L63.2426 81.2469Z" fill="#FFA600"/>
<path d="M63.0999 89.3264H36.9009V94.9759H63.0999V89.3264Z" fill="#FFA600"/>
<path d="M61.7583 97.4053H38.2231L41.323 101.737H58.6202L61.7583 97.4053Z" fill="#5C6365"/>
</svg>
